<svg version="1.1" id="Layer_1" xmlns="http://www.w3.org/2000/svg" xmlns:xlink="http://www.w3.org/1999/xlink" x="0px" y="0px"
	 width="100%" viewBox="0 0 1589 908" enable-background="new 0 0 1589 908" xml:space="preserve">
<path fill="#FFFFFF" opacity="1.000000" stroke="none" 
	d="
M1.000001,428.000000 
	C1.000000,285.749176 1.000000,143.498352 1.000000,1.000000 
	C99.693398,1.000000 198.386993,1.000000 297.539185,1.390689 
	C297.970062,2.280059 298.081757,2.839417 297.894775,3.268717 
	C288.968353,23.766865 285.801605,45.088284 289.019226,67.238449 
	C292.569336,91.677536 308.661957,107.124107 329.985992,115.887024 
	C330.726379,116.191269 331.772919,115.750443 332.776550,115.646553 
	C324.077850,85.428986 315.464020,55.506329 306.850220,25.583672 
	C307.116425,25.497475 307.382660,25.411276 307.648865,25.325079 
	C319.843048,55.307625 332.037262,85.290176 344.231445,115.272720 
	C352.483704,100.973404 356.035950,86.574341 354.222412,70.614235 
	C352.068604,51.659748 343.203339,36.361996 329.901215,23.783318 
	C320.847992,15.222463 310.029266,8.528672 300.000000,0.999999 
	C729.901672,1.000000 1159.803345,1.000000 1590.000000,1.000000 
	C1590.000000,182.693420 1590.000000,364.386993 1589.669922,546.422363 
	C1586.524902,539.496399 1580.020020,537.201233 1573.454712,535.022705 
	C1568.236328,533.291260 1562.800049,532.064514 1557.816040,529.823242 
	C1553.183472,527.740051 1552.546021,521.948303 1556.364624,519.415161 
	C1558.309448,518.124939 1560.837280,517.287781 1563.172729,517.091431 
	C1570.271240,516.494751 1576.202881,519.799744 1581.780762,523.816162 
	C1583.558350,521.617859 1585.261230,519.817017 1586.599365,517.776855 
	C1588.145264,515.419495 1588.703247,513.641174 1585.312134,511.502380 
	C1574.606323,504.749908 1563.320557,504.034973 1551.953125,508.198914 
	C1540.425903,512.421387 1537.791626,531.000305 1547.402344,538.687622 
	C1550.475342,541.145691 1554.537476,542.494690 1558.310181,543.919250 
	C1563.290894,545.800049 1568.472656,547.141968 1573.489136,548.936340 
	C1576.513428,550.018127 1579.201172,552.411438 1577.751953,555.595642 
	C1576.574829,558.182068 1573.804443,560.947449 1571.159546,561.773560 
	C1565.647705,563.495178 1560.004028,562.214661 1554.901367,559.398132 
	C1551.799683,557.686157 1548.831543,555.732239 1545.797119,553.883118 
	C1543.290649,557.106445 1540.955444,560.109680 1538.518555,563.243591 
	C1545.808105,568.513733 1552.726807,572.000183 1561.181274,573.345032 
	C1571.188110,574.936768 1585.823608,571.805359 1590.000000,560.000000 
	C1590.000000,676.301331 1590.000000,792.602600 1590.000000,909.000000 
	C1198.639771,909.000000 807.279602,909.000000 415.549316,908.675537 
	C419.681915,903.504272 424.464325,898.884949 428.628418,893.762878 
	C436.978882,883.491455 445.534973,873.319458 453.028442,862.433411 
	C467.819489,840.945801 478.908875,817.680298 484.569733,791.993591 
	C487.675262,777.901917 488.323975,763.652283 486.804901,749.476562 
	C484.890289,731.610046 478.544037,715.012390 468.912811,699.818420 
	C462.687347,689.997253 455.505371,680.903015 446.386536,673.255005 
	C436.404938,742.586670 426.479980,811.524719 416.555054,880.462769 
	C416.000000,878.787170 415.929657,877.137390 416.011169,875.495117 
	C416.657715,862.467224 417.398346,849.443726 417.983368,836.413147 
	C418.717651,820.057129 419.344391,803.696228 419.994232,787.336548 
	C420.677155,770.145020 421.411682,752.955017 421.975159,735.759521 
	C422.431396,721.835999 422.659576,707.905090 423.018036,693.978210 
	C423.043030,693.006287 423.439789,692.041016 423.443970,691.071777 
	C423.479523,682.759460 423.464355,674.446960 423.464355,665.840881 
	C412.177612,673.766602 403.382233,683.647400 395.540802,694.181335 
	C378.546173,717.011353 368.288483,742.775208 366.166229,771.218384 
	C364.691803,790.978577 367.252014,810.466492 372.791962,829.663025 
	C381.180328,858.729675 396.051392,884.353882 413.000000,909.000000 
	C275.731354,909.000000 138.462708,909.000000 1.000000,909.000000 
	C1.000000,749.639832 1.000000,590.279602 1.325521,430.554810 
	C3.791231,431.983063 5.967255,433.735107 8.065866,435.575409 
	C23.018564,448.687714 39.516758,459.612915 57.011612,468.904572 
	C79.482185,480.838806 102.837852,490.627533 128.706818,491.944519 
	C139.867035,492.512695 151.241882,493.065033 162.241547,491.574799 
	C177.667389,489.484894 192.020493,483.516418 205.429565,475.300385 
	C218.212677,467.467834 228.723557,457.228394 239.102905,446.126801 
	C237.863159,445.614044 237.151566,445.100250 236.405289,445.043610 
	C222.608215,443.996979 208.806458,443.012360 195.006821,441.999207 
	C181.538910,441.010437 168.071884,440.009583 154.605164,439.004395 
	C141.304184,438.011597 128.004410,437.002594 114.703537,436.008209 
	C101.236748,435.001434 87.774178,433.931000 74.300598,433.024414 
	C62.774624,432.248932 51.231979,431.723083 39.704124,430.972809 
	C34.304344,430.621338 28.922052,430.001068 23.531836,429.502655 
	C23.528759,429.001770 23.525684,428.500916 23.522610,428.000061 
	C36.083191,428.000061 48.645493,428.129272 61.203835,427.961578 
	C72.472321,427.811157 83.735428,427.293793 95.002739,427.011322 
	C109.933846,426.637054 124.868057,426.382812 139.798340,425.980896 
	C148.234360,425.753815 156.662445,425.204376 165.098892,425.027130 
	C184.861847,424.612000 204.629395,424.409302 224.391373,423.957855 
	C231.074005,423.805206 237.745468,423.163361 244.922531,422.713684 
	C228.924530,404.741394 210.182358,391.648315 188.340393,382.995392 
	C167.838593,374.873413 146.682983,370.590515 124.556374,373.050446 
	C114.487724,374.169830 104.235168,374.898590 94.491318,377.437012 
	C66.191338,384.809570 40.923080,398.600616 17.521715,415.957825 
	C12.048317,420.017517 6.508996,423.988312 1.000001,428.000000 
M54.820179,259.012054 
	C81.956139,270.338684 109.092102,281.665314 136.553619,293.127838 
	C136.174545,291.075378 136.106903,289.594360 135.624619,288.263641 
	C127.344170,265.416382 111.910851,249.247025 88.669762,242.272690 
	C66.900864,235.740173 44.835430,238.282578 21.609688,244.738510 
	C28.478802,256.216492 34.431877,267.479034 41.659649,277.853516 
	C48.257851,287.324341 56.853893,295.121399 66.994225,301.022186 
	C79.622353,308.370667 93.189285,311.251495 107.539993,308.859375 
	C114.568420,307.687805 121.358353,305.085480 129.091980,302.893890 
	C127.526611,301.227722 127.170181,300.608856 126.635155,300.313538 
	C109.593880,290.906921 92.520554,281.558350 75.486176,272.139343 
	C68.067841,268.037445 60.724094,263.800629 53.733910,259.296448 
	C53.845985,259.169495 53.958061,259.042542 54.820179,259.012054 
M258.302948,853.282349 
	C258.173798,853.164856 258.044617,853.047424 258.009186,852.181030 
	C269.520538,824.720337 281.031921,797.259644 292.887512,768.977783 
	C281.997803,771.660828 269.821045,778.353699 262.737518,784.725464 
	C245.800400,799.960938 238.573959,819.398560 238.069778,841.672119 
	C237.939499,847.428284 238.264145,853.263000 239.098114,858.956360 
	C240.273041,866.977417 242.117432,874.900330 243.753967,883.265869 
	C260.837830,875.673828 275.949341,866.876953 288.688141,854.001648 
	C303.046722,839.489197 310.822540,822.613403 308.802734,802.187317 
	C307.959930,793.664307 304.948883,785.355591 302.735596,776.168701 
	C301.077942,777.606934 300.572632,777.858337 300.351135,778.264465 
	C290.496002,796.333435 280.713531,814.442200 270.809021,832.483948 
	C266.888275,839.625854 262.702820,846.622375 258.302948,853.282349 
M672.992859,717.490051 
	C667.620544,711.455078 662.335693,705.339417 656.859558,699.400146 
	C640.039062,681.157227 623.117126,663.007874 606.296448,644.765076 
	C600.820190,638.825867 595.562256,632.685791 590.143250,626.692993 
	C588.550781,624.931824 586.748047,623.360718 584.566223,621.240479 
	C583.931458,625.150818 583.144897,628.006531 583.055054,630.883911 
	C582.590942,645.749512 583.665894,660.466858 586.951782,675.044128 
	C593.236572,702.924927 606.488281,726.927246 626.646301,747.070007 
	C637.599304,758.014709 650.185059,766.891968 663.761414,774.310547 
	C690.321106,788.823486 718.950073,796.914062 749.000000,801.830017 
	C749.000000,800.105835 748.981140,798.785034 749.002869,797.464905 
	C749.302185,779.295654 747.288696,761.366272 744.107971,743.485046 
	C740.458984,722.971497 734.600708,703.279907 725.298767,684.577454 
	C719.576111,673.071533 712.661316,662.518188 704.417358,652.629211 
	C694.117554,640.274109 681.527222,631.203125 667.380554,623.992432 
	C655.044556,617.704834 641.764221,614.376892 628.224426,612.256470 
	C621.020081,611.128174 613.622681,611.233215 604.916443,610.695374 
	C644.740845,664.219910 683.628174,716.485046 722.515503,768.750122 
	C721.983459,769.184204 721.451477,769.618225 720.919434,770.052246 
	C718.917419,767.833313 716.925537,765.605164 714.911682,763.396912 
	C701.107849,748.260254 687.299316,733.127930 672.992859,717.490051 
M282.562286,665.924316 
	C284.572571,659.894226 286.862152,653.940430 288.534668,647.818054 
	C291.945465,635.332520 293.734467,622.628235 292.740997,608.592224 
	C239.503296,648.211121 186.992752,687.288879 134.482208,726.366638 
	C134.178024,726.026611 133.873856,725.686584 133.569672,725.346558 
	C134.478424,724.300903 135.285202,723.140259 136.313065,722.228943 
	C141.491318,717.637939 146.812042,713.205078 151.926102,708.544800 
	C164.394058,697.183289 176.773239,685.724426 189.192581,674.309631 
	C201.489441,663.007385 213.828247,651.750488 226.080444,640.400024 
	C236.650436,630.608032 247.075363,620.659363 257.661133,610.884705 
	C263.232422,605.740295 269.063538,600.878113 274.673218,595.774048 
	C277.488800,593.212280 280.071411,590.394470 283.149292,587.300537 
	C278.366974,586.794800 274.590851,585.938721 270.854858,586.087830 
	C260.478760,586.501831 250.051727,586.805603 239.768707,588.121216 
	C223.122940,590.250916 207.266724,595.470154 192.449951,603.326233 
	C177.486588,611.260010 164.621521,621.983459 153.036453,634.366882 
	C141.711044,646.472900 132.929184,660.269836 125.644165,674.977234 
	C117.438683,691.542908 111.454163,708.994202 107.471436,727.081665 
	C105.697083,735.139832 104.078255,743.232361 102.244370,752.000000 
	C105.063034,752.000000 106.697807,752.114929 108.312225,751.982178 
	C124.048653,750.688599 139.858276,749.940308 155.498383,747.898132 
	C181.293274,744.530151 205.789627,736.710999 228.515320,723.818542 
	C252.326035,710.310425 270.925232,691.894409 282.562286,665.924316 
M680.000366,246.499969 
	C709.522095,224.536957 739.043823,202.573944 768.565491,180.610931 
	C769.155701,181.247330 769.745850,181.883728 770.335999,182.520126 
	C768.531494,183.872650 766.622681,185.107346 764.939697,186.597092 
	C755.553284,194.905792 746.162109,203.210815 736.885864,211.641785 
	C724.530884,222.870911 712.244629,234.176407 699.994934,245.520508 
	C689.548401,255.194778 679.205627,264.981018 668.796265,274.695648 
	C663.714905,279.437897 658.619812,284.166504 653.472656,288.837067 
	C642.732300,298.582977 631.953125,308.286133 620.333557,318.780243 
	C623.198975,319.323090 624.992310,319.984680 626.770813,319.946899 
	C637.369690,319.721832 647.988464,319.667847 658.556213,318.924438 
	C674.160950,317.826752 689.034973,313.483917 703.173523,306.909790 
	C721.488892,298.393555 738.169678,287.387421 750.882935,271.445251 
	C758.910889,261.378174 766.785339,251.018372 773.293091,239.946091 
	C785.363098,219.410233 792.528748,196.844009 797.652405,173.649460 
	C799.046753,167.337082 800.046082,160.937454 801.404846,153.618332 
	C794.027161,154.116348 787.479492,154.527374 780.936890,155.007523 
	C772.071777,155.658096 763.130127,155.828735 754.363953,157.151047 
	C734.845459,160.095291 715.683167,164.630249 697.285767,172.013382 
	C679.684570,179.076996 663.391663,188.337555 649.372681,201.196136 
	C632.789917,216.406387 621.094360,234.871445 615.839417,256.771667 
	C612.657410,270.033173 611.244812,283.719269 609.037292,297.214600 
	C609.592224,297.491638 610.147217,297.768707 610.702209,298.045746 
	C618.140259,292.525177 625.577637,287.003815 633.016418,281.484192 
	C648.503723,269.992432 663.991638,258.501587 680.000366,246.499969 
M292.073730,289.600311 
	C280.836945,274.359955 269.678833,259.060852 258.347290,243.891281 
	C233.422974,210.524826 208.401443,177.230972 183.450500,143.884354 
	C181.102036,140.745667 178.972900,137.442856 176.741928,134.216263 
	C178.195343,134.066910 178.941223,134.438492 179.458542,135.015121 
	C187.715591,144.218628 195.858536,153.525879 204.196350,162.655243 
	C219.580154,179.499512 235.038925,196.275772 250.535461,213.016510 
	C260.432983,223.708664 270.470245,234.271362 280.412842,244.921997 
	C284.587341,249.393784 288.694305,253.929001 292.805206,258.459656 
	C300.216156,266.627289 307.607025,274.813202 315.698486,283.756622 
	C316.310486,281.089325 316.980469,279.580414 316.947266,278.087128 
	C316.715240,267.654724 316.546661,257.213776 315.959564,246.798019 
	C315.001556,229.802505 309.909637,213.772644 302.716339,198.560120 
	C291.240417,174.290726 273.687744,155.099213 251.610245,139.865097 
	C231.649872,126.091843 209.694550,116.907433 186.387360,110.784645 
	C174.848282,107.753349 163.167877,105.260056 150.337997,102.237480 
	C151.269119,114.362389 151.793457,125.218895 153.014160,135.996521 
	C154.336884,147.675018 155.890518,159.359879 158.094620,170.898453 
	C161.464172,188.538315 167.330917,205.480591 175.327881,221.530502 
	C183.369522,237.670074 193.905853,252.186569 207.647690,264.015076 
	C216.804581,271.897034 226.847549,278.466156 238.159073,283.181305 
	C249.842728,288.051544 261.935944,291.063629 274.346008,292.864166 
	C280.736603,293.791382 287.269806,293.735657 294.389038,294.163177 
	C293.519531,292.185944 293.069824,291.163239 292.073730,289.600311 
M529.547180,93.054703 
	C521.746033,60.099136 505.761078,31.160120 486.200714,3.555478 
	C472.164124,16.340643 460.560028,30.444725 450.110565,45.467236 
	C430.540741,73.601349 415.856537,103.637054 412.757721,138.570236 
	C411.453369,153.274170 413.044586,167.334915 416.731659,181.394424 
	C421.344849,198.985321 430.479767,214.167053 441.758789,228.164902 
	C445.077393,232.283463 448.864624,236.024384 453.215454,240.791122 
	C463.383606,170.197357 473.352722,100.985428 483.321838,31.773499 
	C483.480652,44.703789 482.628113,57.546886 482.035614,70.401970 
	C481.250671,87.430794 480.682892,104.469551 479.996063,121.503006 
	C479.349487,137.538315 478.577637,153.569107 478.026428,169.607574 
	C477.269257,191.636887 476.699158,213.672623 475.969269,235.702942 
	C475.847870,239.367386 475.321198,243.018372 474.902313,247.532166 
	C477.014618,246.355255 478.487000,245.885483 479.481476,244.922256 
	C484.799133,239.771988 490.117767,234.612747 495.214752,229.246429 
	C511.207733,212.408478 521.998718,192.495819 528.129700,170.270187 
	C531.067383,159.620667 532.405212,148.486679 533.870300,137.492508 
	C534.589539,132.094711 534.396973,126.467720 533.819824,121.029060 
	C532.853760,111.926727 531.249023,102.892174 529.547180,93.054703 
M385.000000,422.500000 
	C385.000000,467.910309 385.000000,513.320618 385.000000,559.000000 
	C407.298126,559.000000 428.941895,559.286255 450.571747,558.862610 
	C459.533875,558.687134 468.679230,557.889282 477.373444,555.825195 
	C507.001740,548.791382 529.315796,532.284790 542.063416,503.902161 
	C550.133667,485.933746 551.976501,467.128357 548.767334,448.068329 
	C545.379578,427.947723 536.020691,410.734161 520.530273,396.904999 
	C502.661652,380.952728 481.541931,373.103577 458.094604,372.190704 
	C435.470123,371.309875 412.784515,371.995453 390.125763,372.009613 
	C388.519135,372.010620 386.912567,372.149078 385.000000,372.237793 
	C385.000000,388.901520 385.000000,405.200775 385.000000,422.500000 
M833.000000,420.500000 
	C833.000000,466.570587 833.000000,512.641174 833.000000,558.632507 
	C842.035950,558.632507 850.425171,558.632507 859.127808,558.632507 
	C859.127808,532.336243 859.127808,506.405792 859.127808,479.979736 
	C891.830078,479.979736 924.210815,479.979736 956.693726,479.979736 
	C956.693726,471.423584 956.693726,463.369751 956.693726,454.821381 
	C924.009888,454.821381 891.629089,454.821381 859.379272,454.821381 
	C859.379272,435.269287 859.379272,416.218811 859.379272,396.854370 
	C896.016846,396.854370 932.276123,396.854370 968.720459,396.854370 
	C968.720459,388.479218 968.720459,380.425873 968.720459,372.305054 
	C923.400940,372.305054 878.361572,372.305054 833.000000,372.305054 
	C833.000000,388.238617 833.000000,403.869293 833.000000,420.500000 
M670.000000,549.462769 
	C670.000000,552.562805 670.000000,555.662842 670.000000,558.616638 
	C679.064270,558.616638 687.456360,558.616638 696.000000,558.616638 
	C696.000000,535.743835 695.911560,513.253296 696.108704,490.765289 
	C696.134094,487.858887 696.954956,484.500702 698.563904,482.139954 
	C710.776062,464.221039 723.341919,446.543793 735.667114,428.701172 
	C746.221375,413.422363 756.609741,398.028900 767.055359,382.675232 
	C769.337646,379.320648 771.551636,375.919617 774.155823,372.000122 
	C764.224182,372.000122 755.389587,371.857635 746.566711,372.116058 
	C744.722656,372.170074 742.194275,373.202362 741.210632,374.630585 
	C727.257507,394.888763 713.530457,415.302551 699.717041,435.657166 
	C694.355713,443.557251 688.914856,451.403320 683.526611,459.250153 
	C682.667358,458.725037 682.305847,458.625793 682.147644,458.390106 
	C664.435669,432.007690 646.778503,405.588287 628.981201,379.263611 
	C627.152283,376.558350 624.643433,372.541595 622.188965,372.341858 
	C612.377930,371.543427 602.463806,372.012329 592.033936,372.012329 
	C592.968567,373.640472 593.460022,374.655151 594.091675,375.573364 
	C604.438721,390.613525 614.793823,405.648193 625.166565,420.670624 
	C638.690308,440.256561 652.209351,459.845825 665.781921,479.397919 
	C668.746155,483.668060 670.266296,488.023834 670.149170,493.486664 
	C669.756287,511.808594 670.000000,530.144165 670.000000,549.462769 
M559.881592,815.310730 
	C557.217346,829.041199 559.703491,842.201111 565.394165,854.612549 
	C572.538025,870.193298 584.072937,882.271362 598.078491,891.987671 
	C603.512390,895.757385 609.153931,899.227722 614.839478,902.924622 
	C622.209412,886.109253 626.283020,866.602600 626.111633,850.364136 
	C625.903076,830.612976 619.838379,813.628296 604.833374,800.396912 
	C598.000000,794.371399 590.061462,790.142212 580.720764,786.870728 
	C588.465881,814.121155 595.987549,840.585449 603.509277,867.049744 
	C602.912231,867.234192 602.315125,867.418579 601.718079,867.603027 
	C590.905823,841.046631 580.093506,814.490173 568.953430,787.128662 
	C564.214111,796.399292 560.781921,804.971313 559.881592,815.310730 
M633.506165,108.994400 
	C628.542358,120.809967 623.578491,132.625534 618.183105,145.468384 
	C633.273193,140.553329 645.057617,133.631119 654.781311,122.889351 
	C666.820435,109.589638 671.832825,93.791176 672.941956,76.450043 
	C673.903748,61.411743 671.644775,46.683292 667.435242,32.067257 
	C666.468567,32.114468 665.392761,31.900692 664.547607,32.248001 
	C650.700317,37.938442 638.061279,45.710575 626.948547,55.675381 
	C614.091675,67.204163 604.829224,80.849831 602.550110,98.677269 
	C600.815430,112.246460 603.953186,124.555023 609.614319,137.609589 
	C624.809204,110.188141 639.487305,83.699303 654.165405,57.210461 
	C654.464294,57.360302 654.763123,57.510143 655.062012,57.659985 
	C648.019104,74.552460 640.976196,91.444923 633.506165,108.994400 
M861.509399,634.006775 
	C854.714355,626.877869 848.548767,618.984131 840.999817,612.771240 
	C822.463257,597.515442 801.384644,595.757507 779.151306,603.427795 
	C776.962708,604.182983 774.940247,605.419739 771.906128,606.883972 
	C799.179871,621.998352 825.481445,636.573914 851.783020,651.149475 
	C851.622009,651.472412 851.461060,651.795349 851.300049,652.118225 
	C822.421448,639.960632 793.542847,627.803101 763.571106,615.185303 
	C765.070068,619.052612 766.008789,621.461243 766.937683,623.873535 
	C777.843323,652.194092 803.488403,669.108704 832.819031,669.916382 
	C840.733093,670.134277 848.726807,669.775269 856.589478,668.864868 
	C863.755493,668.035278 870.793396,666.099060 879.280273,664.366211 
	C873.059082,653.613281 867.539551,644.073181 861.509399,634.006775 
M819.765381,319.915680 
	C839.176086,325.893707 857.369263,323.055267 874.172607,311.896729 
	C883.132080,305.946991 890.535156,298.150177 896.846802,289.511719 
	C903.969849,279.762604 910.286987,269.471130 914.226501,257.574066 
	C896.501282,252.777008 878.985657,250.351288 860.902954,252.937286 
	C833.083008,256.915833 814.409851,272.469696 803.180359,297.682983 
	C802.073425,300.168243 801.574585,302.924286 800.494141,306.562836 
	C830.616943,293.887970 859.413635,281.771088 888.210388,269.654175 
	C888.348633,269.959930 888.486938,270.265656 888.625183,270.571381 
	C862.032166,285.298309 835.439148,300.025238 807.827515,315.316254 
	C812.375977,317.027557 815.710510,318.282135 819.765381,319.915680 
M38.056717,572.459839 
	C22.876722,584.382996 11.569510,599.343689 2.761095,616.589050 
	C4.368731,617.528503 5.414579,618.390991 6.615053,618.802795 
	C20.911280,623.707275 35.687489,626.651184 50.729755,626.757812 
	C58.749283,626.814819 66.936905,624.972046 74.787224,622.964417 
	C97.579514,617.135437 109.738907,600.732056 117.389572,578.867065 
	C87.610847,588.484375 58.686867,597.825623 29.762886,607.166870 
	C29.646399,606.838440 29.529909,606.510010 29.413422,606.181580 
	C58.055481,593.374695 86.697540,580.567810 115.339600,567.760925 
	C115.164604,567.209412 114.989616,566.657837 114.814621,566.106323 
	C88.532036,555.196838 63.025959,555.374146 38.056717,572.459839 
M1243.005005,755.495422 
	C1242.066284,756.721436 1241.127441,757.947449 1239.960938,759.470825 
	C1233.824219,750.152832 1228.049805,741.305176 1222.155518,732.538086 
	C1221.438843,731.472168 1220.131348,730.219666 1219.004517,730.121582 
	C1215.436890,729.810852 1211.825073,730.006714 1208.389160,730.006714 
	C1208.389160,752.411926 1208.389160,774.138245 1208.389160,795.735229 
	C1212.392944,795.735229 1216.002686,795.735229 1220.197998,795.735229 
	C1220.197998,781.204346 1220.197998,766.930420 1220.197998,751.956970 
	C1226.971313,761.967163 1233.220947,771.203308 1239.901611,781.076538 
	C1246.745972,770.855103 1252.938721,761.606689 1259.131592,752.358276 
	C1259.431885,752.440735 1259.732056,752.523193 1260.032227,752.605652 
	C1260.032227,766.952515 1260.032227,781.299316 1260.032227,795.667603 
	C1264.625122,795.667603 1268.681030,795.667603 1272.619141,795.667603 
	C1272.619141,773.607727 1272.619141,751.882202 1272.619141,730.000061 
	C1269.077759,730.000061 1265.857422,729.635437 1262.777100,730.134094 
	C1260.868530,730.443115 1258.539551,731.630859 1257.488770,733.168579 
	C1252.621094,740.292175 1248.134766,747.676392 1243.005005,755.495422 
M1270.568726,573.000061 
	C1281.160522,572.666443 1291.771362,572.612366 1302.336304,571.886780 
	C1308.020630,571.496399 1313.058472,568.938477 1316.066772,563.666809 
	C1321.762329,553.686035 1318.480835,544.370850 1307.170410,538.496033 
	C1308.226318,537.382996 1309.139526,536.165771 1310.291016,535.247437 
	C1318.342529,528.826965 1316.025635,510.508606 1304.218140,508.916046 
	C1290.744873,507.098816 1277.033203,507.050140 1263.328247,506.227051 
	C1263.328247,529.285400 1263.328247,551.005066 1263.328247,573.000000 
	C1265.632446,573.000000 1267.610596,573.000000 1270.568726,573.000061 
M1138.052246,630.717896 
	C1131.660889,639.181213 1130.265747,649.259766 1132.298828,658.859375 
	C1137.373413,682.820679 1161.040405,690.373047 1180.272461,682.860657 
	C1195.005981,677.105347 1203.278076,660.655212 1200.155151,644.381409 
	C1197.050903,628.204407 1183.823608,617.786316 1168.395142,617.070129 
	C1156.425659,616.514465 1146.278931,620.831116 1138.052246,630.717896 
M1109.205322,568.958130 
	C1112.426147,566.453796 1116.133789,564.374512 1118.767944,561.357788 
	C1124.497437,554.796204 1125.864990,546.834656 1126.211426,538.141052 
	C1126.760254,524.369995 1115.027100,509.641083 1102.042969,508.253967 
	C1090.640991,507.035889 1079.005859,507.999481 1067.275879,507.999481 
	C1067.275879,529.185181 1067.275879,550.902161 1067.275879,573.000000 
	C1073.007935,573.000000 1078.475586,572.874634 1083.935425,573.029114 
	C1092.369507,573.267761 1100.665283,572.859436 1109.205322,568.958130 
M1386.997559,515.328064 
	C1386.997559,512.707214 1386.997559,510.086365 1386.997559,507.272339 
	C1370.159546,507.272339 1353.773804,507.272339 1337.313232,507.272339 
	C1337.313232,529.262512 1337.313232,550.979004 1337.313232,572.646912 
	C1354.017212,572.646912 1370.405640,572.646912 1386.774414,572.646912 
	C1386.774414,569.017029 1386.774414,565.742676 1386.774414,561.965942 
	C1374.498413,561.965942 1362.436279,561.965942 1350.321045,561.965942 
	C1350.321045,556.062439 1350.321045,550.673950 1350.321045,544.782532 
	C1361.366089,544.782532 1372.097900,544.782532 1382.763916,544.782532 
	C1382.763916,540.996155 1382.763916,537.721069 1382.763916,533.945007 
	C1371.810059,533.945007 1361.080200,533.945007 1350.332275,533.945007 
	C1350.332275,528.373108 1350.332275,523.317749 1350.332275,518.000000 
	C1361.304199,518.000000 1371.946777,518.066223 1382.586792,517.923340 
	C1384.058472,517.903564 1385.516235,516.849792 1386.997559,515.328064 
M1420.000000,674.462585 
	C1420.000000,655.715942 1420.000000,636.969299 1420.000000,618.396851 
	C1415.573730,618.396851 1411.853149,618.396851 1407.808228,618.396851 
	C1407.808228,627.396362 1407.808228,636.000366 1407.808228,644.690918 
	C1397.749146,644.690918 1388.029907,644.690918 1377.804688,644.690918 
	C1377.804688,635.660217 1377.804688,626.928772 1377.804688,618.402832 
	C1373.229858,618.402832 1369.172119,618.402832 1365.261230,618.402832 
	C1365.261230,640.402771 1365.261230,661.999146 1365.261230,683.690613 
	C1369.582520,683.690613 1373.636597,683.690613 1378.197021,683.690613 
	C1378.197021,674.661133 1378.197021,665.930664 1378.197021,657.399536 
	C1388.435303,657.399536 1398.157715,657.399536 1408.198975,657.399536 
	C1408.198975,666.403503 1408.198975,675.009094 1408.198975,683.684448 
	C1412.262451,683.684448 1415.984131,683.684448 1420.000000,683.684448 
	C1420.000000,680.731323 1420.000000,678.090759 1420.000000,674.462585 
M1478.354980,796.000000 
	C1479.798584,795.915771 1481.242310,795.831482 1482.657104,795.748901 
	C1482.657104,792.017700 1482.657104,788.629700 1482.657104,784.740112 
	C1469.927002,784.740112 1457.533691,784.740112 1445.257324,784.740112 
	C1445.257324,778.952576 1445.257324,773.680481 1445.257324,767.908875 
	C1456.233276,767.908875 1466.963867,767.908875 1477.649414,767.908875 
	C1477.649414,764.002808 1477.649414,760.614563 1477.649414,756.724487 
	C1466.576660,756.724487 1455.848267,756.724487 1445.266113,756.724487 
	C1445.266113,751.268494 1445.266113,746.329224 1445.266113,740.892273 
	C1457.584473,740.892273 1469.646362,740.892273 1481.641113,740.892273 
	C1481.641113,736.984314 1481.641113,733.597107 1481.641113,730.400330 
	C1465.228394,730.400330 1449.177002,730.400330 1433.262329,730.400330 
	C1433.262329,752.399109 1433.262329,773.996826 1433.262329,796.000000 
	C1448.141357,796.000000 1462.761475,796.000000 1478.354980,796.000000 
M1511.481445,507.000000 
	C1499.063721,507.000000 1486.645874,507.000000 1474.384277,507.000000 
	C1474.384277,529.410034 1474.384277,551.125488 1474.384277,572.752563 
	C1491.036621,572.752563 1507.303711,572.752563 1523.704834,572.752563 
	C1523.704834,569.112000 1523.704834,565.724182 1523.704834,561.833069 
	C1511.024536,561.833069 1498.631348,561.833069 1486.386597,561.833069 
	C1486.386597,555.922485 1486.386597,550.530334 1486.386597,544.827271 
	C1497.376587,544.827271 1507.982056,544.827271 1518.698975,544.827271 
	C1518.698975,541.100281 1518.698975,537.712891 1518.698975,533.820923 
	C1507.678345,533.820923 1496.949707,533.820923 1486.393677,533.820923 
	C1486.393677,528.241638 1486.393677,523.182678 1486.393677,517.814453 
	C1498.723511,517.814453 1510.661621,517.814453 1522.692627,517.814453 
	C1522.692627,514.087036 1522.692627,510.698883 1522.692627,507.000000 
	C1519.083984,507.000000 1515.779175,507.000000 1511.481445,507.000000 
M1238.555908,554.057983 
	C1231.467041,538.051941 1224.378296,522.045898 1217.271851,506.000000 
	C1215.110596,506.000000 1213.059937,506.300659 1211.133179,505.940155 
	C1206.505249,505.074280 1204.745483,507.813293 1203.212646,511.409210 
	C1197.921997,523.820007 1192.482056,536.167236 1187.147217,548.559387 
	C1183.712524,556.537720 1180.362305,564.552490 1176.784058,573.000000 
	C1179.614868,573.000000 1181.823120,572.696045 1183.914062,573.062195 
	C1188.509521,573.867065 1190.781494,571.872375 1192.144165,567.649658 
	C1193.319580,564.007202 1195.139404,560.572754 1196.650391,557.101074 
	C1206.683716,557.101074 1216.494507,557.101074 1226.451050,557.101074 
	C1228.311157,561.606567 1230.045532,566.130737 1232.083984,570.513428 
	C1232.579956,571.579407 1234.023682,572.790161 1235.120605,572.883118 
	C1238.669922,573.183777 1242.260620,572.995361 1246.449097,572.995361 
	C1243.723999,566.379944 1241.326904,560.560608 1238.555908,554.057983 
M1146.526367,737.973999 
	C1138.111450,757.169067 1129.696533,776.364136 1121.232300,795.671936 
	C1133.265991,796.723267 1133.262695,796.721680 1138.259033,786.370361 
	C1138.757690,785.337402 1139.710693,784.367981 1139.791870,783.317871 
	C1140.051025,779.965454 1142.224365,779.952576 1144.712036,779.977844 
	C1151.206909,780.043823 1157.732544,780.379517 1164.188843,779.875671 
	C1169.042725,779.496887 1171.817017,780.774292 1173.020508,785.670959 
	C1173.711060,788.479919 1175.073608,791.159912 1176.411499,793.754761 
	C1176.905396,794.712769 1178.155151,795.823853 1179.129883,795.893860 
	C1182.684814,796.149414 1186.269165,795.994873 1189.898315,795.994873 
	C1189.898315,794.819946 1190.055054,794.261353 1189.875854,793.848450 
	C1180.941406,773.262878 1171.988770,752.685181 1162.989380,732.127869 
	C1162.499146,731.008240 1161.814819,729.548462 1160.843140,729.135498 
	C1155.503418,726.866028 1149.816895,729.603638 1147.937622,735.081238 
	C1147.674316,735.848694 1147.274780,736.569336 1146.526367,737.973999 
M1546.678833,767.144836 
	C1542.185547,762.018433 1536.551147,759.175232 1529.851196,757.815857 
	C1525.442139,756.921265 1521.105957,755.276917 1516.994751,753.403259 
	C1511.622559,750.955017 1511.498779,745.146912 1516.549072,741.992737 
	C1523.295044,737.779419 1529.441528,740.970276 1535.417603,743.917358 
	C1541.477051,746.905701 1541.402832,747.099426 1545.289062,741.173096 
	C1545.990845,740.103088 1546.499146,738.906250 1547.234741,737.505432 
	C1538.370972,729.557434 1527.988037,727.464600 1516.956055,729.781128 
	C1512.453735,730.726501 1507.143066,733.114990 1504.492676,736.593567 
	C1496.577515,746.982788 1499.230957,761.875000 1513.776001,766.031982 
	C1519.700928,767.725342 1525.746094,769.135559 1531.448486,771.400146 
	C1533.690918,772.290710 1536.052246,774.922180 1536.664551,777.213806 
	C1537.131470,778.960876 1535.448853,782.578857 1533.800049,783.324463 
	C1530.383911,784.869324 1526.042114,786.343201 1522.644165,785.520264 
	C1516.526367,784.038879 1510.822876,780.846497 1504.236694,778.069641 
	C1502.608398,780.045166 1500.141235,783.038269 1497.727905,785.966187 
	C1504.580200,793.463501 1514.348511,797.158447 1527.133667,796.968384 
	C1543.247925,796.729004 1553.844116,785.137085 1546.678833,767.144836 
M1276.000000,660.264160 
	C1276.000000,646.323914 1276.000000,632.383667 1276.000000,618.286926 
	C1271.795166,618.286926 1268.074707,618.286926 1264.437134,618.286926 
	C1264.248047,618.871948 1264.065552,619.173950 1264.064819,619.476562 
	C1264.032959,631.964844 1264.179443,644.456238 1263.944458,656.940491 
	C1263.781250,665.618713 1259.761475,670.764160 1253.952515,672.921936 
	C1242.886597,677.032654 1232.123779,669.341553 1232.024170,657.289734 
	C1231.917114,644.347229 1232.000000,631.403259 1232.000000,618.278687 
	C1227.812378,618.278687 1224.091919,618.278687 1220.005005,618.278687 
	C1220.005005,633.673706 1219.581909,648.810730 1220.212402,663.903687 
	C1220.466064,669.976685 1223.714355,675.264404 1228.802368,679.603027 
	C1235.424561,685.249878 1242.935425,684.734192 1250.640015,685.067444 
	C1264.197998,685.653809 1275.371460,674.719116 1276.000000,660.264160 
M1085.588623,770.000000 
	C1094.333740,770.000000 1103.078735,770.000000 1111.767944,770.000000 
	C1111.767944,765.665527 1111.767944,762.061035 1111.767944,757.964478 
	C1100.826416,757.964478 1090.104614,757.964478 1079.311035,757.964478 
	C1079.311035,752.074097 1079.311035,746.690491 1079.311035,740.814819 
	C1091.669312,740.814819 1103.724365,740.814819 1115.610352,740.814819 
	C1115.610352,736.923279 1115.610352,733.536194 1115.610352,730.238342 
	C1099.297729,730.238342 1083.375610,730.238342 1067.255981,730.238342 
	C1067.255981,752.179504 1067.255981,773.881897 1067.255981,795.698853 
	C1071.236816,795.698853 1074.956177,795.698853 1079.174805,795.698853 
	C1079.174805,787.016785 1079.174805,778.625427 1079.174805,770.000000 
	C1081.324951,770.000000 1082.970703,770.000000 1085.588623,770.000000 
M1097.982544,682.235352 
	C1097.988403,676.407166 1098.166504,670.572266 1097.939819,664.753113 
	C1097.786255,660.811096 1098.784180,657.595032 1101.065063,654.281921 
	C1107.336426,645.171936 1113.169434,635.760376 1119.184814,626.473938 
	C1120.869019,623.874023 1122.584229,621.294006 1124.748291,618.000000 
	C1120.637085,618.000000 1117.776855,618.283142 1114.997559,617.929871 
	C1111.350098,617.466431 1109.289795,618.973328 1107.469849,621.982056 
	C1102.628906,629.985352 1097.516846,637.824707 1092.368896,645.956238 
	C1091.466431,644.859375 1090.646118,644.039856 1090.031738,643.087402 
	C1085.355591,635.837830 1080.804565,628.505371 1075.999634,621.342957 
	C1075.039795,619.912415 1073.252197,618.348999 1071.683105,618.152832 
	C1067.954224,617.686707 1064.127319,618.002747 1059.801636,618.002747 
	C1060.516479,619.678711 1060.844482,620.934265 1061.520996,621.959961 
	C1068.783691,632.969055 1076.229858,643.860229 1083.303467,654.988647 
	C1084.855347,657.430054 1085.720581,660.648071 1085.881836,663.564758 
	C1086.253784,670.297607 1086.000000,677.065125 1086.000000,684.420044 
	C1090.468872,683.953796 1094.171753,683.567444 1097.982544,682.235352 
M1317.500000,618.000000 
	C1309.408936,618.000000 1301.317871,618.000000 1293.390381,618.000000 
	C1293.390381,622.409302 1293.390381,626.132080 1293.390381,630.180176 
	C1300.384644,630.180176 1306.991943,630.180176 1314.089844,630.180176 
	C1314.089844,648.232727 1314.089844,665.954773 1314.089844,683.653931 
	C1318.656128,683.653931 1322.710693,683.653931 1327.263184,683.653931 
	C1327.263184,665.591187 1327.263184,647.870544 1327.263184,629.827881 
	C1334.041992,629.827881 1340.318237,629.827881 1346.697754,629.827881 
	C1346.697754,625.765320 1346.697754,622.043945 1346.697754,618.000000 
	C1337.098999,618.000000 1327.799561,618.000000 1317.500000,618.000000 
M1402.002441,515.333496 
	C1403.159180,516.222107 1404.282471,517.822449 1405.478149,517.878418 
	C1411.227661,518.147339 1416.996704,517.999329 1423.244873,517.999329 
	C1423.244873,536.725769 1423.244873,554.785461 1423.244873,572.749939 
	C1427.364014,572.749939 1430.973145,572.749939 1435.079834,572.749939 
	C1435.079834,554.449341 1435.079834,536.390930 1435.079834,517.831543 
	C1442.314575,517.831543 1449.050049,517.831543 1455.607178,517.831543 
	C1455.607178,513.917480 1455.607178,510.530487 1455.607178,507.256592 
	C1437.611816,507.256592 1420.010254,507.256592 1402.000000,507.256592 
	C1402.000000,509.793396 1402.000000,512.090149 1402.002441,515.333496 
M1344.000000,748.500488 
	C1344.000000,742.411133 1344.000000,736.321716 1344.000000,730.380981 
	C1339.604004,730.380981 1335.884155,730.380981 1332.393799,730.380981 
	C1332.393799,752.462830 1332.393799,774.162109 1332.393799,795.759277 
	C1348.044678,795.759277 1363.300781,795.759277 1378.715698,795.759277 
	C1378.715698,792.129395 1378.715698,788.744446 1378.715698,784.866211 
	C1367.055176,784.866211 1355.670288,784.866211 1344.000000,784.866211 
	C1344.000000,772.747009 1344.000000,761.123718 1344.000000,748.500488 
M1159.000000,528.500122 
	C1159.000000,521.406982 1159.000000,514.313782 1159.000000,507.392822 
	C1154.582520,507.392822 1150.861694,507.392822 1147.254150,507.392822 
	C1147.254150,529.385376 1147.254150,550.984192 1147.254150,572.696899 
	C1151.235840,572.696899 1154.957642,572.696899 1159.000000,572.696899 
	C1159.000000,558.097473 1159.000000,543.798706 1159.000000,528.500122 
M1409.000000,787.450195 
	C1409.000000,768.367737 1409.000000,749.285217 1409.000000,730.228455 
	C1404.679443,730.228455 1401.071655,730.228455 1397.271484,730.228455 
	C1397.271484,752.177124 1397.271484,773.896851 1397.271484,795.678345 
	C1401.272095,795.678345 1404.994019,795.678345 1409.000000,795.678345 
	C1409.000000,793.049805 1409.000000,790.740356 1409.000000,787.450195 
M1308.000000,780.496521 
	C1308.000000,763.743774 1308.000000,746.990967 1308.000000,730.389404 
	C1303.593384,730.389404 1299.870239,730.389404 1296.251099,730.389404 
	C1296.251099,752.378662 1296.251099,773.977539 1296.251099,795.700073 
	C1300.229248,795.700073 1303.951050,795.700073 1308.000000,795.700073 
	C1308.000000,790.769348 1308.000000,786.132141 1308.000000,780.496521 
z"/>
<path fill="#00ADEE" opacity="1.000000" stroke="none" 
	d="
M413.333313,909.000000 
	C396.051392,884.353882 381.180328,858.729675 372.791962,829.663025 
	C367.252014,810.466492 364.691803,790.978577 366.166229,771.218384 
	C368.288483,742.775208 378.546173,717.011353 395.540802,694.181335 
	C403.382233,683.647400 412.177612,673.766602 423.464355,665.840881 
	C423.464355,674.446960 423.479523,682.759460 423.443970,691.071777 
	C423.439789,692.041016 423.043030,693.006287 423.018036,693.978210 
	C422.659576,707.905090 422.431396,721.835999 421.975159,735.759521 
	C421.411682,752.955017 420.677155,770.145020 419.994232,787.336548 
	C419.344391,803.696228 418.717651,820.057129 417.983368,836.413147 
	C417.398346,849.443726 416.657715,862.467224 416.011169,875.495117 
	C415.929657,877.137390 416.000000,878.787170 416.555054,880.462769 
	C426.479980,811.524719 436.404938,742.586670 446.386536,673.255005 
	C455.505371,680.903015 462.687347,689.997253 468.912811,699.818420 
	C478.544037,715.012390 484.890289,731.610046 486.804901,749.476562 
	C488.323975,763.652283 487.675262,777.901917 484.569733,791.993591 
	C478.908875,817.680298 467.819489,840.945801 453.028442,862.433411 
	C445.534973,873.319458 436.978882,883.491455 428.628418,893.762878 
	C424.464325,898.884949 419.681915,903.504272 415.089600,908.675537 
	C414.555542,909.000000 414.111115,909.000000 413.333313,909.000000 
z"/>
<path fill="#F6921E" opacity="1.000000" stroke="none" 
	d="
M1.000001,428.333313 
	C6.508996,423.988312 12.048317,420.017517 17.521715,415.957825 
	C40.923080,398.600616 66.191338,384.809570 94.491318,377.437012 
	C104.235168,374.898590 114.487724,374.169830 124.556374,373.050446 
	C146.682983,370.590515 167.838593,374.873413 188.340393,382.995392 
	C210.182358,391.648315 228.924530,404.741394 244.922531,422.713684 
	C237.745468,423.163361 231.074005,423.805206 224.391373,423.957855 
	C204.629395,424.409302 184.861847,424.612000 165.098892,425.027130 
	C156.662445,425.204376 148.234360,425.753815 139.798340,425.980896 
	C124.868057,426.382812 109.933846,426.637054 95.002739,427.011322 
	C83.735428,427.293793 72.472321,427.811157 61.203835,427.961578 
	C48.645493,428.129272 36.083191,428.000061 23.522610,428.000061 
	C23.525684,428.500916 23.528759,429.001770 23.531836,429.502655 
	C28.922052,430.001068 34.304344,430.621338 39.704124,430.972809 
	C51.231979,431.723083 62.774624,432.248932 74.300598,433.024414 
	C87.774178,433.931000 101.236748,435.001434 114.703537,436.008209 
	C128.004410,437.002594 141.304184,438.011597 154.605164,439.004395 
	C168.071884,440.009583 181.538910,441.010437 195.006821,441.999207 
	C208.806458,443.012360 222.608215,443.996979 236.405289,445.043610 
	C237.151566,445.100250 237.863159,445.614044 239.102905,446.126801 
	C228.723557,457.228394 218.212677,467.467834 205.429565,475.300385 
	C192.020493,483.516418 177.667389,489.484894 162.241547,491.574799 
	C151.241882,493.065033 139.867035,492.512695 128.706818,491.944519 
	C102.837852,490.627533 79.482185,480.838806 57.011612,468.904572 
	C39.516758,459.612915 23.018564,448.687714 8.065866,435.575409 
	C5.967255,433.735107 3.791231,431.983063 1.325521,430.095093 
	C1.000000,429.555542 1.000000,429.111115 1.000001,428.333313 
z"/>
<path fill="#F6921E" opacity="1.000000" stroke="none" 
	d="
M299.666687,0.999999 
	C310.029266,8.528672 320.847992,15.222463 329.901215,23.783318 
	C343.203339,36.361996 352.068604,51.659748 354.222412,70.614235 
	C356.035950,86.574341 352.483704,100.973404 344.231445,115.272720 
	C332.037262,85.290176 319.843048,55.307625 307.648865,25.325079 
	C307.382660,25.411276 307.116425,25.497475 306.850220,25.583672 
	C315.464020,55.506329 324.077850,85.428986 332.776550,115.646553 
	C331.772919,115.750443 330.726379,116.191269 329.985992,115.887024 
	C308.661957,107.124107 292.569336,91.677536 289.019226,67.238449 
	C285.801605,45.088284 288.968353,23.766865 297.894775,3.268717 
	C298.081757,2.839417 297.970062,2.280059 297.998871,1.390689 
	C298.444458,1.000000 298.888885,1.000000 299.666687,0.999999 
z"/>
<path fill="#00ADEE" opacity="1.000000" stroke="none" 
	d="
M1590.000000,559.536804 
	C1585.823608,571.805359 1571.188110,574.936768 1561.181274,573.345032 
	C1552.726807,572.000183 1545.808105,568.513733 1538.518555,563.243591 
	C1540.955444,560.109680 1543.290649,557.106445 1545.797119,553.883118 
	C1548.831543,555.732239 1551.799683,557.686157 1554.901367,559.398132 
	C1560.004028,562.214661 1565.647705,563.495178 1571.159546,561.773560 
	C1573.804443,560.947449 1576.574829,558.182068 1577.751953,555.595642 
	C1579.201172,552.411438 1576.513428,550.018127 1573.489136,548.936340 
	C1568.472656,547.141968 1563.290894,545.800049 1558.310181,543.919250 
	C1554.537476,542.494690 1550.475342,541.145691 1547.402344,538.687622 
	C1537.791626,531.000305 1540.425903,512.421387 1551.953125,508.198914 
	C1563.320557,504.034973 1574.606323,504.749908 1585.312134,511.502380 
	C1588.703247,513.641174 1588.145264,515.419495 1586.599365,517.776855 
	C1585.261230,519.817017 1583.558350,521.617859 1581.780762,523.816162 
	C1576.202881,519.799744 1570.271240,516.494751 1563.172729,517.091431 
	C1560.837280,517.287781 1558.309448,518.124939 1556.364624,519.415161 
	C1552.546021,521.948303 1553.183472,527.740051 1557.816040,529.823242 
	C1562.800049,532.064514 1568.236328,533.291260 1573.454712,535.022705 
	C1580.020020,537.201233 1586.524902,539.496399 1589.669922,546.882080 
	C1590.000000,551.024536 1590.000000,555.049072 1590.000000,559.536804 
z"/>
<path fill="#F6921E" opacity="1.000000" stroke="none" 
	d="
M673.242554,717.742065 
	C687.299316,733.127930 701.107849,748.260254 714.911682,763.396912 
	C716.925537,765.605164 718.917419,767.833313 720.919434,770.052246 
	C721.451477,769.618225 721.983459,769.184204 722.515503,768.750122 
	C683.628174,716.485046 644.740845,664.219910 604.916443,610.695374 
	C613.622681,611.233215 621.020081,611.128174 628.224426,612.256470 
	C641.764221,614.376892 655.044556,617.704834 667.380554,623.992432 
	C681.527222,631.203125 694.117554,640.274109 704.417358,652.629211 
	C712.661316,662.518188 719.576111,673.071533 725.298767,684.577454 
	C734.600708,703.279907 740.458984,722.971497 744.107971,743.485046 
	C747.288696,761.366272 749.302185,779.295654 749.002869,797.464905 
	C748.981140,798.785034 749.000000,800.105835 749.000000,801.830017 
	C718.950073,796.914062 690.321106,788.823486 663.761414,774.310547 
	C650.185059,766.891968 637.599304,758.014709 626.646301,747.070007 
	C606.488281,726.927246 593.236572,702.924927 586.951782,675.044128 
	C583.665894,660.466858 582.590942,645.749512 583.055054,630.883911 
	C583.144897,628.006531 583.931458,625.150818 584.566223,621.240479 
	C586.748047,623.360718 588.550781,624.931824 590.143250,626.692993 
	C595.562256,632.685791 600.820190,638.825867 606.296448,644.765076 
	C623.117126,663.007874 640.039062,681.157227 656.859558,699.400146 
	C662.335693,705.339417 667.620544,711.455078 673.242554,717.742065 
z"/>
<path fill="#86C244" opacity="1.000000" stroke="none" 
	d="
M282.331909,666.236572 
	C270.925232,691.894409 252.326035,710.310425 228.515320,723.818542 
	C205.789627,736.710999 181.293274,744.530151 155.498383,747.898132 
	C139.858276,749.940308 124.048653,750.688599 108.312225,751.982178 
	C106.697807,752.114929 105.063034,752.000000 102.244370,752.000000 
	C104.078255,743.232361 105.697083,735.139832 107.471436,727.081665 
	C111.454163,708.994202 117.438683,691.542908 125.644165,674.977234 
	C132.929184,660.269836 141.711044,646.472900 153.036453,634.366882 
	C164.621521,621.983459 177.486588,611.260010 192.449951,603.326233 
	C207.266724,595.470154 223.122940,590.250916 239.768707,588.121216 
	C250.051727,586.805603 260.478760,586.501831 270.854858,586.087830 
	C274.590851,585.938721 278.366974,586.794800 283.149292,587.300537 
	C280.071411,590.394470 277.488800,593.212280 274.673218,595.774048 
	C269.063538,600.878113 263.232422,605.740295 257.661133,610.884705 
	C247.075363,620.659363 236.650436,630.608032 226.080444,640.400024 
	C213.828247,651.750488 201.489441,663.007385 189.192581,674.309631 
	C176.773239,685.724426 164.394058,697.183289 151.926102,708.544800 
	C146.812042,713.205078 141.491318,717.637939 136.313065,722.228943 
	C135.285202,723.140259 134.478424,724.300903 133.569672,725.346558 
	C133.873856,725.686584 134.178024,726.026611 134.482208,726.366638 
	C186.992752,687.288879 239.503296,648.211121 292.740997,608.592224 
	C293.734467,622.628235 291.945465,635.332520 288.534668,647.818054 
	C286.862152,653.940430 284.572571,659.894226 282.331909,666.236572 
M131.455261,728.815491 
	C131.534286,728.548828 131.613312,728.282104 131.692337,728.015442 
	C131.447067,727.961304 131.201797,727.907227 130.956528,727.853088 
	C130.901306,728.186035 130.846069,728.518982 131.455261,728.815491 
z"/>
<path fill="#F6921E" opacity="1.000000" stroke="none" 
	d="
M679.739868,246.755157 
	C663.991638,258.501587 648.503723,269.992432 633.016418,281.484192 
	C625.577637,287.003815 618.140259,292.525177 610.702209,298.045746 
	C610.147217,297.768707 609.592224,297.491638 609.037292,297.214600 
	C611.244812,283.719269 612.657410,270.033173 615.839417,256.771667 
	C621.094360,234.871445 632.789917,216.406387 649.372681,201.196136 
	C663.391663,188.337555 679.684570,179.076996 697.285767,172.013382 
	C715.683167,164.630249 734.845459,160.095291 754.363953,157.151047 
	C763.130127,155.828735 772.071777,155.658096 780.936890,155.007523 
	C787.479492,154.527374 794.027161,154.116348 801.404846,153.618332 
	C800.046082,160.937454 799.046753,167.337082 797.652405,173.649460 
	C792.528748,196.844009 785.363098,219.410233 773.293091,239.946091 
	C766.785339,251.018372 758.910889,261.378174 750.882935,271.445251 
	C738.169678,287.387421 721.488892,298.393555 703.173523,306.909790 
	C689.034973,313.483917 674.160950,317.826752 658.556213,318.924438 
	C647.988464,319.667847 637.369690,319.721832 626.770813,319.946899 
	C624.992310,319.984680 623.198975,319.323090 620.333557,318.780243 
	C631.953125,308.286133 642.732300,298.582977 653.472656,288.837067 
	C658.619812,284.166504 663.714905,279.437897 668.796265,274.695648 
	C679.205627,264.981018 689.548401,255.194778 699.994934,245.520508 
	C712.244629,234.176407 724.530884,222.870911 736.885864,211.641785 
	C746.162109,203.210815 755.553284,194.905792 764.939697,186.597092 
	C766.622681,185.107346 768.531494,183.872650 770.335999,182.520126 
	C769.745850,181.883728 769.155701,181.247330 768.565491,180.610931 
	C739.043823,202.573944 709.522095,224.536957 679.739868,246.755157 
M771.488586,179.337875 
	C771.857117,179.087006 772.225647,178.836121 772.594116,178.585220 
	C772.106750,178.636246 771.619385,178.687256 771.488586,179.337875 
z"/>
<path fill="#00ADEE" opacity="1.000000" stroke="none" 
	d="
M292.346924,289.870422 
	C293.069824,291.163239 293.519531,292.185944 294.389038,294.163177 
	C287.269806,293.735657 280.736603,293.791382 274.346008,292.864166 
	C261.935944,291.063629 249.842728,288.051544 238.159073,283.181305 
	C226.847549,278.466156 216.804581,271.897034 207.647690,264.015076 
	C193.905853,252.186569 183.369522,237.670074 175.327881,221.530502 
	C167.330917,205.480591 161.464172,188.538315 158.094620,170.898453 
	C155.890518,159.359879 154.336884,147.675018 153.014160,135.996521 
	C151.793457,125.218895 151.269119,114.362389 150.337997,102.237480 
	C163.167877,105.260056 174.848282,107.753349 186.387360,110.784645 
	C209.694550,116.907433 231.649872,126.091843 251.610245,139.865097 
	C273.687744,155.099213 291.240417,174.290726 302.716339,198.560120 
	C309.909637,213.772644 315.001556,229.802505 315.959564,246.798019 
	C316.546661,257.213776 316.715240,267.654724 316.947266,278.087128 
	C316.980469,279.580414 316.310486,281.089325 315.698486,283.756622 
	C307.607025,274.813202 300.216156,266.627289 292.805206,258.459656 
	C288.694305,253.929001 284.587341,249.393784 280.412842,244.921997 
	C270.470245,234.271362 260.432983,223.708664 250.535461,213.016510 
	C235.038925,196.275772 219.580154,179.499512 204.196350,162.655243 
	C195.858536,153.525879 187.715591,144.218628 179.458542,135.015121 
	C178.941223,134.438492 178.195343,134.066910 176.741928,134.216263 
	C178.972900,137.442856 181.102036,140.745667 183.450500,143.884354 
	C208.401443,177.230972 233.422974,210.524826 258.347290,243.891281 
	C269.678833,259.060852 280.836945,274.359955 292.346924,289.870422 
M174.703262,130.351242 
	C174.609314,130.790298 174.515366,131.229355 174.421417,131.668411 
	C174.667313,131.406158 174.913223,131.143921 174.703262,130.351242 
z"/>
<path fill="#86C244" opacity="1.000000" stroke="none" 
	d="
M529.730164,93.441895 
	C531.249023,102.892174 532.853760,111.926727 533.819824,121.029060 
	C534.396973,126.467720 534.589539,132.094711 533.870300,137.492508 
	C532.405212,148.486679 531.067383,159.620667 528.129700,170.270187 
	C521.998718,192.495819 511.207733,212.408478 495.214752,229.246429 
	C490.117767,234.612747 484.799133,239.771988 479.481476,244.922256 
	C478.487000,245.885483 477.014618,246.355255 474.902313,247.532166 
	C475.321198,243.018372 475.847870,239.367386 475.969269,235.702942 
	C476.699158,213.672623 477.269257,191.636887 478.026428,169.607574 
	C478.577637,153.569107 479.349487,137.538315 479.996063,121.503006 
	C480.682892,104.469551 481.250671,87.430794 482.035614,70.401970 
	C482.628113,57.546886 483.480652,44.703789 483.321838,31.773499 
	C473.352722,100.985428 463.383606,170.197357 453.215454,240.791122 
	C448.864624,236.024384 445.077393,232.283463 441.758789,228.164902 
	C430.479767,214.167053 421.344849,198.985321 416.731659,181.394424 
	C413.044586,167.334915 411.453369,153.274170 412.757721,138.570236 
	C415.856537,103.637054 430.540741,73.601349 450.110565,45.467236 
	C460.560028,30.444725 472.164124,16.340643 486.200714,3.555478 
	C505.761078,31.160120 521.746033,60.099136 529.730164,93.441895 
z"/>
<path fill="#00ADEE" opacity="1.000000" stroke="none" 
	d="
M385.000000,422.000000 
	C385.000000,405.200775 385.000000,388.901520 385.000000,372.237793 
	C386.912567,372.149078 388.519135,372.010620 390.125763,372.009613 
	C412.784515,371.995453 435.470123,371.309875 458.094604,372.190704 
	C481.541931,373.103577 502.661652,380.952728 520.530273,396.904999 
	C536.020691,410.734161 545.379578,427.947723 548.767334,448.068329 
	C551.976501,467.128357 550.133667,485.933746 542.063416,503.902161 
	C529.315796,532.284790 507.001740,548.791382 477.373444,555.825195 
	C468.679230,557.889282 459.533875,558.687134 450.571747,558.862610 
	C428.941895,559.286255 407.298126,559.000000 385.000000,559.000000 
	C385.000000,513.320618 385.000000,467.910309 385.000000,422.000000 
M461.725159,397.905304 
	C459.961945,397.603546 458.200165,397.050507 456.435242,397.040222 
	C443.610535,396.965424 430.785126,397.000000 417.959961,397.000000 
	C416.040680,397.000000 414.121368,397.000000 412.380493,397.000000 
	C412.380493,443.090973 412.380493,488.460907 412.380493,533.002686 
	C429.343811,533.002686 445.950592,533.626892 462.487518,532.819946 
	C477.764160,532.074463 491.370667,525.807922 502.271942,515.059631 
	C518.409424,499.148499 524.964539,479.759430 522.102600,457.023804 
	C519.711792,438.031189 511.807190,422.400055 496.356201,410.923187 
	C486.359283,403.497589 475.179413,398.891632 461.725159,397.905304 
z"/>
<path fill="#00ADEE" opacity="1.000000" stroke="none" 
	d="
M833.000000,420.000000 
	C833.000000,403.869293 833.000000,388.238617 833.000000,372.305054 
	C878.361572,372.305054 923.400940,372.305054 968.720459,372.305054 
	C968.720459,380.425873 968.720459,388.479218 968.720459,396.854370 
	C932.276123,396.854370 896.016846,396.854370 859.379272,396.854370 
	C859.379272,416.218811 859.379272,435.269287 859.379272,454.821381 
	C891.629089,454.821381 924.009888,454.821381 956.693726,454.821381 
	C956.693726,463.369751 956.693726,471.423584 956.693726,479.979736 
	C924.210815,479.979736 891.830078,479.979736 859.127808,479.979736 
	C859.127808,506.405792 859.127808,532.336243 859.127808,558.632507 
	C850.425171,558.632507 842.035950,558.632507 833.000000,558.632507 
	C833.000000,512.641174 833.000000,466.570587 833.000000,420.000000 
z"/>
<path fill="#00ADEE" opacity="1.000000" stroke="none" 
	d="
M670.000000,548.968628 
	C670.000000,530.144165 669.756287,511.808594 670.149170,493.486664 
	C670.266296,488.023834 668.746155,483.668060 665.781921,479.397919 
	C652.209351,459.845825 638.690308,440.256561 625.166565,420.670624 
	C614.793823,405.648193 604.438721,390.613525 594.091675,375.573364 
	C593.460022,374.655151 592.968567,373.640472 592.033936,372.012329 
	C602.463806,372.012329 612.377930,371.543427 622.188965,372.341858 
	C624.643433,372.541595 627.152283,376.558350 628.981201,379.263611 
	C646.778503,405.588287 664.435669,432.007690 682.147644,458.390106 
	C682.305847,458.625793 682.667358,458.725037 683.526611,459.250153 
	C688.914856,451.403320 694.355713,443.557251 699.717041,435.657166 
	C713.530457,415.302551 727.257507,394.888763 741.210632,374.630585 
	C742.194275,373.202362 744.722656,372.170074 746.566711,372.116058 
	C755.389587,371.857635 764.224182,372.000122 774.155823,372.000122 
	C771.551636,375.919617 769.337646,379.320648 767.055359,382.675232 
	C756.609741,398.028900 746.221375,413.422363 735.667114,428.701172 
	C723.341919,446.543793 710.776062,464.221039 698.563904,482.139954 
	C696.954956,484.500702 696.134094,487.858887 696.108704,490.765289 
	C695.911560,513.253296 696.000000,535.743835 696.000000,558.616638 
	C687.456360,558.616638 679.064270,558.616638 670.000000,558.616638 
	C670.000000,555.662842 670.000000,552.562805 670.000000,548.968628 
z"/>
<path fill="#86C244" opacity="1.000000" stroke="none" 
	d="
M559.929932,814.864014 
	C560.781921,804.971313 564.214111,796.399292 568.953430,787.128662 
	C580.093506,814.490173 590.905823,841.046631 601.718079,867.603027 
	C602.315125,867.418579 602.912231,867.234192 603.509277,867.049744 
	C595.987549,840.585449 588.465881,814.121155 580.720764,786.870728 
	C590.061462,790.142212 598.000000,794.371399 604.833374,800.396912 
	C619.838379,813.628296 625.903076,830.612976 626.111633,850.364136 
	C626.283020,866.602600 622.209412,886.109253 614.839478,902.924622 
	C609.153931,899.227722 603.512390,895.757385 598.078491,891.987671 
	C584.072937,882.271362 572.538025,870.193298 565.394165,854.612549 
	C559.703491,842.201111 557.217346,829.041199 559.929932,814.864014 
z"/>
<path fill="#00ADEE" opacity="1.000000" stroke="none" 
	d="
M633.719727,108.665894 
	C640.976196,91.444923 648.019104,74.552460 655.062012,57.659985 
	C654.763123,57.510143 654.464294,57.360302 654.165405,57.210461 
	C639.487305,83.699303 624.809204,110.188141 609.614319,137.609589 
	C603.953186,124.555023 600.815430,112.246460 602.550110,98.677269 
	C604.829224,80.849831 614.091675,67.204163 626.948547,55.675381 
	C638.061279,45.710575 650.700317,37.938442 664.547607,32.248001 
	C665.392761,31.900692 666.468567,32.114468 667.435242,32.067257 
	C671.644775,46.683292 673.903748,61.411743 672.941956,76.450043 
	C671.832825,93.791176 666.820435,109.589638 654.781311,122.889351 
	C645.057617,133.631119 633.273193,140.553329 618.183105,145.468384 
	C623.578491,132.625534 628.542358,120.809967 633.719727,108.665894 
z"/>
<path fill="#F6921E" opacity="1.000000" stroke="none" 
	d="
M258.637939,853.685120 
	C262.702820,846.622375 266.888275,839.625854 270.809021,832.483948 
	C280.713531,814.442200 290.496002,796.333435 300.351135,778.264465 
	C300.572632,777.858337 301.077942,777.606934 302.735596,776.168701 
	C304.948883,785.355591 307.959930,793.664307 308.802734,802.187317 
	C310.822540,822.613403 303.046722,839.489197 288.688141,854.001648 
	C275.949341,866.876953 260.837830,875.673828 243.753967,883.265869 
	C242.117432,874.900330 240.273041,866.977417 239.098114,858.956360 
	C238.264145,853.263000 237.939499,847.428284 238.069778,841.672119 
	C238.573959,819.398560 245.800400,799.960938 262.737518,784.725464 
	C269.821045,778.353699 281.997803,771.660828 292.887512,768.977783 
	C281.031921,797.259644 269.520538,824.720337 257.670197,852.708740 
	C257.288208,854.016663 257.245178,854.796997 257.157471,856.388489 
	C257.928711,854.980164 258.283325,854.332642 258.637939,853.685120 
z"/>
<path fill="#00ADEE" opacity="1.000000" stroke="none" 
	d="
M861.764771,634.269897 
	C867.539551,644.073181 873.059082,653.613281 879.280273,664.366211 
	C870.793396,666.099060 863.755493,668.035278 856.589478,668.864868 
	C848.726807,669.775269 840.733093,670.134277 832.819031,669.916382 
	C803.488403,669.108704 777.843323,652.194092 766.937683,623.873535 
	C766.008789,621.461243 765.070068,619.052612 763.571106,615.185303 
	C793.542847,627.803101 822.421448,639.960632 851.300049,652.118225 
	C851.461060,651.795349 851.622009,651.472412 851.783020,651.149475 
	C825.481445,636.573914 799.179871,621.998352 771.906128,606.883972 
	C774.940247,605.419739 776.962708,604.182983 779.151306,603.427795 
	C801.384644,595.757507 822.463257,597.515442 840.999817,612.771240 
	C848.548767,618.984131 854.714355,626.877869 861.764771,634.269897 
z"/>
<path fill="#86C244" opacity="1.000000" stroke="none" 
	d="
M53.346481,259.625092 
	C60.724094,263.800629 68.067841,268.037445 75.486176,272.139343 
	C92.520554,281.558350 109.593880,290.906921 126.635155,300.313538 
	C127.170181,300.608856 127.526611,301.227722 129.091980,302.893890 
	C121.358353,305.085480 114.568420,307.687805 107.539993,308.859375 
	C93.189285,311.251495 79.622353,308.370667 66.994225,301.022186 
	C56.853893,295.121399 48.257851,287.324341 41.659649,277.853516 
	C34.431877,267.479034 28.478802,256.216492 21.609688,244.738510 
	C44.835430,238.282578 66.900864,235.740173 88.669762,242.272690 
	C111.910851,249.247025 127.344170,265.416382 135.624619,288.263641 
	C136.106903,289.594360 136.174545,291.075378 136.553619,293.127838 
	C109.092102,281.665314 81.956139,270.338684 54.273575,258.662415 
	C52.385921,257.843842 51.044872,257.374908 49.703827,256.906006 
	C49.619648,257.152527 49.535469,257.399078 49.451290,257.645599 
	C50.749687,258.305450 52.048084,258.965271 53.346481,259.625092 
z"/>
<path fill="#86C244" opacity="1.000000" stroke="none" 
	d="
M819.405151,319.726196 
	C815.710510,318.282135 812.375977,317.027557 807.827515,315.316254 
	C835.439148,300.025238 862.032166,285.298309 888.625183,270.571381 
	C888.486938,270.265656 888.348633,269.959930 888.210388,269.654175 
	C859.413635,281.771088 830.616943,293.887970 800.494141,306.562836 
	C801.574585,302.924286 802.073425,300.168243 803.180359,297.682983 
	C814.409851,272.469696 833.083008,256.915833 860.902954,252.937286 
	C878.985657,250.351288 896.501282,252.777008 914.226501,257.574066 
	C910.286987,269.471130 903.969849,279.762604 896.846802,289.511719 
	C890.535156,298.150177 883.132080,305.946991 874.172607,311.896729 
	C857.369263,323.055267 839.176086,325.893707 819.405151,319.726196 
z"/>
<path fill="#00ADEE" opacity="1.000000" stroke="none" 
	d="
M38.366455,572.260437 
	C63.025959,555.374146 88.532036,555.196838 114.814621,566.106323 
	C114.989616,566.657837 115.164604,567.209412 115.339600,567.760925 
	C86.697540,580.567810 58.055481,593.374695 29.413422,606.181580 
	C29.529909,606.510010 29.646399,606.838440 29.762886,607.166870 
	C58.686867,597.825623 87.610847,588.484375 117.389572,578.867065 
	C109.738907,600.732056 97.579514,617.135437 74.787224,622.964417 
	C66.936905,624.972046 58.749283,626.814819 50.729755,626.757812 
	C35.687489,626.651184 20.911280,623.707275 6.615053,618.802795 
	C5.414579,618.390991 4.368731,617.528503 2.761095,616.589050 
	C11.569510,599.343689 22.876722,584.382996 38.366455,572.260437 
z"/>
<path fill="#00ADEE" opacity="1.000000" stroke="none" 
	d="
M1243.258545,755.231323 
	C1248.134766,747.676392 1252.621094,740.292175 1257.488770,733.168579 
	C1258.539551,731.630859 1260.868530,730.443115 1262.777100,730.134094 
	C1265.857422,729.635437 1269.077759,730.000061 1272.619141,730.000061 
	C1272.619141,751.882202 1272.619141,773.607727 1272.619141,795.667603 
	C1268.681030,795.667603 1264.625122,795.667603 1260.032227,795.667603 
	C1260.032227,781.299316 1260.032227,766.952515 1260.032227,752.605652 
	C1259.732056,752.523193 1259.431885,752.440735 1259.131592,752.358276 
	C1252.938721,761.606689 1246.745972,770.855103 1239.901611,781.076538 
	C1233.220947,771.203308 1226.971313,761.967163 1220.197998,751.956970 
	C1220.197998,766.930420 1220.197998,781.204346 1220.197998,795.735229 
	C1216.002686,795.735229 1212.392944,795.735229 1208.389160,795.735229 
	C1208.389160,774.138245 1208.389160,752.411926 1208.389160,730.006714 
	C1211.825073,730.006714 1215.436890,729.810852 1219.004517,730.121582 
	C1220.131348,730.219666 1221.438843,731.472168 1222.155518,732.538086 
	C1228.049805,741.305176 1233.824219,750.152832 1239.960938,759.470825 
	C1241.127441,757.947449 1242.066284,756.721436 1243.258545,755.231323 
z"/>
<path fill="#00ADEE" opacity="1.000000" stroke="none" 
	d="
M1270.078613,573.000000 
	C1267.610596,573.000000 1265.632446,573.000000 1263.328247,573.000000 
	C1263.328247,551.005066 1263.328247,529.285400 1263.328247,506.227051 
	C1277.033203,507.050140 1290.744873,507.098816 1304.218140,508.916046 
	C1316.025635,510.508606 1318.342529,528.826965 1310.291016,535.247437 
	C1309.139526,536.165771 1308.226318,537.382996 1307.170410,538.496033 
	C1318.480835,544.370850 1321.762329,553.686035 1316.066772,563.666809 
	C1313.058472,568.938477 1308.020630,571.496399 1302.336304,571.886780 
	C1291.771362,572.612366 1281.160522,572.666443 1270.078613,573.000000 
M1275.018188,560.239868 
	C1275.471436,560.805359 1275.915405,561.854492 1276.379272,561.863342 
	C1282.521729,561.980652 1288.740723,562.528503 1294.785889,561.757507 
	C1298.845215,561.239685 1303.781982,560.610901 1305.678833,555.689331 
	C1307.515747,550.923584 1303.401733,545.447327 1297.232666,545.107483 
	C1289.992188,544.708557 1282.712891,545.014038 1275.002319,545.014038 
	C1275.002319,550.067566 1275.002319,554.676086 1275.018188,560.239868 
M1285.469116,534.000000 
	C1289.380859,533.632690 1293.371704,533.626892 1297.181885,532.794983 
	C1300.886230,531.986267 1302.127686,529.026062 1302.056641,525.269653 
	C1301.989502,521.714539 1300.363647,519.368103 1297.030640,519.032227 
	C1289.871460,518.310913 1282.665283,518.054443 1275.295410,517.596313 
	C1275.295410,523.549255 1275.295410,528.605042 1275.295410,534.000000 
	C1278.553101,534.000000 1281.525024,534.000000 1285.469116,534.000000 
z"/>
<path fill="#00ADEE" opacity="1.000000" stroke="none" 
	d="
M1138.238770,630.403320 
	C1146.278931,620.831116 1156.425659,616.514465 1168.395142,617.070129 
	C1183.823608,617.786316 1197.050903,628.204407 1200.155151,644.381409 
	C1203.278076,660.655212 1195.005981,677.105347 1180.272461,682.860657 
	C1161.040405,690.373047 1137.373413,682.820679 1132.298828,658.859375 
	C1130.265747,649.259766 1131.660889,639.181213 1138.238770,630.403320 
M1185.951660,641.904236 
	C1179.979736,629.445435 1165.791626,625.146912 1155.234375,631.958984 
	C1147.440430,636.987976 1144.452271,644.196045 1144.923340,653.387634 
	C1145.466919,663.997742 1154.809082,673.320312 1165.351929,674.096741 
	C1178.213501,675.043762 1193.178223,659.603027 1185.951660,641.904236 
z"/>
<path fill="#00ADEE" opacity="1.000000" stroke="none" 
	d="
M1108.826904,569.038025 
	C1100.665283,572.859436 1092.369507,573.267761 1083.935425,573.029114 
	C1078.475586,572.874634 1073.007935,573.000000 1067.275879,573.000000 
	C1067.275879,550.902161 1067.275879,529.185181 1067.275879,507.999481 
	C1079.005859,507.999481 1090.640991,507.035889 1102.042969,508.253967 
	C1115.027100,509.641083 1126.760254,524.369995 1126.211426,538.141052 
	C1125.864990,546.834656 1124.497437,554.796204 1118.767944,561.357788 
	C1116.133789,564.374512 1112.426147,566.453796 1108.826904,569.038025 
M1108.577637,526.059509 
	C1100.669922,516.024658 1089.773193,518.007568 1079.233154,518.191956 
	C1079.233154,532.678772 1079.233154,546.607544 1079.233154,560.876404 
	C1089.947998,560.717041 1101.341064,563.781494 1108.883789,553.162048 
	C1114.979248,544.580261 1114.875000,535.501648 1108.577637,526.059509 
z"/>
<path fill="#00ADEE" opacity="1.000000" stroke="none" 
	d="
M1386.989014,515.801392 
	C1385.516235,516.849792 1384.058472,517.903564 1382.586792,517.923340 
	C1371.946777,518.066223 1361.304199,518.000000 1350.332275,518.000000 
	C1350.332275,523.317749 1350.332275,528.373108 1350.332275,533.945007 
	C1361.080200,533.945007 1371.810059,533.945007 1382.763916,533.945007 
	C1382.763916,537.721069 1382.763916,540.996155 1382.763916,544.782532 
	C1372.097900,544.782532 1361.366089,544.782532 1350.321045,544.782532 
	C1350.321045,550.673950 1350.321045,556.062439 1350.321045,561.965942 
	C1362.436279,561.965942 1374.498413,561.965942 1386.774414,561.965942 
	C1386.774414,565.742676 1386.774414,569.017029 1386.774414,572.646912 
	C1370.405640,572.646912 1354.017212,572.646912 1337.313232,572.646912 
	C1337.313232,550.979004 1337.313232,529.262512 1337.313232,507.272339 
	C1353.773804,507.272339 1370.159546,507.272339 1386.997559,507.272339 
	C1386.997559,510.086365 1386.997559,512.707214 1386.989014,515.801392 
z"/>
<path fill="#00ADEE" opacity="1.000000" stroke="none" 
	d="
M1420.000000,674.956421 
	C1420.000000,678.090759 1420.000000,680.731323 1420.000000,683.684448 
	C1415.984131,683.684448 1412.262451,683.684448 1408.198975,683.684448 
	C1408.198975,675.009094 1408.198975,666.403503 1408.198975,657.399536 
	C1398.157715,657.399536 1388.435303,657.399536 1378.197021,657.399536 
	C1378.197021,665.930664 1378.197021,674.661133 1378.197021,683.690613 
	C1373.636597,683.690613 1369.582520,683.690613 1365.261230,683.690613 
	C1365.261230,661.999146 1365.261230,640.402771 1365.261230,618.402832 
	C1369.172119,618.402832 1373.229858,618.402832 1377.804688,618.402832 
	C1377.804688,626.928772 1377.804688,635.660217 1377.804688,644.690918 
	C1388.029907,644.690918 1397.749146,644.690918 1407.808228,644.690918 
	C1407.808228,636.000366 1407.808228,627.396362 1407.808228,618.396851 
	C1411.853149,618.396851 1415.573730,618.396851 1420.000000,618.396851 
	C1420.000000,636.969299 1420.000000,655.715942 1420.000000,674.956421 
z"/>
<path fill="#00ADEE" opacity="1.000000" stroke="none" 
	d="
M1477.868408,796.000000 
	C1462.761475,796.000000 1448.141357,796.000000 1433.262329,796.000000 
	C1433.262329,773.996826 1433.262329,752.399109 1433.262329,730.400330 
	C1449.177002,730.400330 1465.228394,730.400330 1481.641113,730.400330 
	C1481.641113,733.597107 1481.641113,736.984314 1481.641113,740.892273 
	C1469.646362,740.892273 1457.584473,740.892273 1445.266113,740.892273 
	C1445.266113,746.329224 1445.266113,751.268494 1445.266113,756.724487 
	C1455.848267,756.724487 1466.576660,756.724487 1477.649414,756.724487 
	C1477.649414,760.614563 1477.649414,764.002808 1477.649414,767.908875 
	C1466.963867,767.908875 1456.233276,767.908875 1445.257324,767.908875 
	C1445.257324,773.680481 1445.257324,778.952576 1445.257324,784.740112 
	C1457.533691,784.740112 1469.927002,784.740112 1482.657104,784.740112 
	C1482.657104,788.629700 1482.657104,792.017700 1482.657104,795.748901 
	C1481.242310,795.831482 1479.798584,795.915771 1477.868408,796.000000 
z"/>
<path fill="#00ADEE" opacity="1.000000" stroke="none" 
	d="
M1511.977905,507.000000 
	C1515.779175,507.000000 1519.083984,507.000000 1522.692627,507.000000 
	C1522.692627,510.698883 1522.692627,514.087036 1522.692627,517.814453 
	C1510.661621,517.814453 1498.723511,517.814453 1486.393677,517.814453 
	C1486.393677,523.182678 1486.393677,528.241638 1486.393677,533.820923 
	C1496.949707,533.820923 1507.678345,533.820923 1518.698975,533.820923 
	C1518.698975,537.712891 1518.698975,541.100281 1518.698975,544.827271 
	C1507.982056,544.827271 1497.376587,544.827271 1486.386597,544.827271 
	C1486.386597,550.530334 1486.386597,555.922485 1486.386597,561.833069 
	C1498.631348,561.833069 1511.024536,561.833069 1523.704834,561.833069 
	C1523.704834,565.724182 1523.704834,569.112000 1523.704834,572.752563 
	C1507.303711,572.752563 1491.036621,572.752563 1474.384277,572.752563 
	C1474.384277,551.125488 1474.384277,529.410034 1474.384277,507.000000 
	C1486.645874,507.000000 1499.063721,507.000000 1511.977905,507.000000 
z"/>
<path fill="#00ADEE" opacity="1.000000" stroke="none" 
	d="
M1238.742920,554.399658 
	C1241.326904,560.560608 1243.723999,566.379944 1246.449097,572.995361 
	C1242.260620,572.995361 1238.669922,573.183777 1235.120605,572.883118 
	C1234.023682,572.790161 1232.579956,571.579407 1232.083984,570.513428 
	C1230.045532,566.130737 1228.311157,561.606567 1226.451050,557.101074 
	C1216.494507,557.101074 1206.683716,557.101074 1196.650391,557.101074 
	C1195.139404,560.572754 1193.319580,564.007202 1192.144165,567.649658 
	C1190.781494,571.872375 1188.509521,573.867065 1183.914062,573.062195 
	C1181.823120,572.696045 1179.614868,573.000000 1176.784058,573.000000 
	C1180.362305,564.552490 1183.712524,556.537720 1187.147217,548.559387 
	C1192.482056,536.167236 1197.921997,523.820007 1203.212646,511.409210 
	C1204.745483,507.813293 1206.505249,505.074280 1211.133179,505.940155 
	C1213.059937,506.300659 1215.110596,506.000000 1217.271851,506.000000 
	C1224.378296,522.045898 1231.467041,538.051941 1238.742920,554.399658 
M1221.448975,545.088318 
	C1218.163452,537.487061 1214.877930,529.885803 1211.472290,522.006897 
	C1208.040405,530.079590 1204.718750,537.892944 1201.327515,545.869995 
	C1208.342896,545.869995 1214.828491,545.869995 1221.448975,545.088318 
z"/>
<path fill="#00ADEE" opacity="1.000000" stroke="none" 
	d="
M1146.732422,737.642822 
	C1147.274780,736.569336 1147.674316,735.848694 1147.937622,735.081238 
	C1149.816895,729.603638 1155.503418,726.866028 1160.843140,729.135498 
	C1161.814819,729.548462 1162.499146,731.008240 1162.989380,732.127869 
	C1171.988770,752.685181 1180.941406,773.262878 1189.875854,793.848450 
	C1190.055054,794.261353 1189.898315,794.819946 1189.898315,795.994873 
	C1186.269165,795.994873 1182.684814,796.149414 1179.129883,795.893860 
	C1178.155151,795.823853 1176.905396,794.712769 1176.411499,793.754761 
	C1175.073608,791.159912 1173.711060,788.479919 1173.020508,785.670959 
	C1171.817017,780.774292 1169.042725,779.496887 1164.188843,779.875671 
	C1157.732544,780.379517 1151.206909,780.043823 1144.712036,779.977844 
	C1142.224365,779.952576 1140.051025,779.965454 1139.791870,783.317871 
	C1139.710693,784.367981 1138.757690,785.337402 1138.259033,786.370361 
	C1133.262695,796.721680 1133.265991,796.723267 1121.232300,795.671936 
	C1129.696533,776.364136 1138.111450,757.169067 1146.732422,737.642822 
M1148.447632,762.055603 
	C1147.673462,764.252563 1146.899170,766.449585 1146.039917,768.887878 
	C1152.832153,768.887878 1159.122803,768.887878 1165.942261,768.887878 
	C1162.561523,761.094727 1159.295532,753.566589 1155.796021,745.499817 
	C1154.313599,748.767151 1153.141724,751.250488 1152.056030,753.770996 
	C1150.965332,756.303650 1149.960815,758.873291 1148.447632,762.055603 
z"/>
<path fill="#00ADEE" opacity="1.000000" stroke="none" 
	d="
M1546.929688,767.440918 
	C1553.844116,785.137085 1543.247925,796.729004 1527.133667,796.968384 
	C1514.348511,797.158447 1504.580200,793.463501 1497.727905,785.966187 
	C1500.141235,783.038269 1502.608398,780.045166 1504.236694,778.069641 
	C1510.822876,780.846497 1516.526367,784.038879 1522.644165,785.520264 
	C1526.042114,786.343201 1530.383911,784.869324 1533.800049,783.324463 
	C1535.448853,782.578857 1537.131470,778.960876 1536.664551,777.213806 
	C1536.052246,774.922180 1533.690918,772.290710 1531.448486,771.400146 
	C1525.746094,769.135559 1519.700928,767.725342 1513.776001,766.031982 
	C1499.230957,761.875000 1496.577515,746.982788 1504.492676,736.593567 
	C1507.143066,733.114990 1512.453735,730.726501 1516.956055,729.781128 
	C1527.988037,727.464600 1538.370972,729.557434 1547.234741,737.505432 
	C1546.499146,738.906250 1545.990845,740.103088 1545.289062,741.173096 
	C1541.402832,747.099426 1541.477051,746.905701 1535.417603,743.917358 
	C1529.441528,740.970276 1523.295044,737.779419 1516.549072,741.992737 
	C1511.498779,745.146912 1511.622559,750.955017 1516.994751,753.403259 
	C1521.105957,755.276917 1525.442139,756.921265 1529.851196,757.815857 
	C1536.551147,759.175232 1542.185547,762.018433 1546.929688,767.440918 
z"/>
<path fill="#00ADEE" opacity="1.000000" stroke="none" 
	d="
M1276.000000,660.731689 
	C1275.371460,674.719116 1264.197998,685.653809 1250.640015,685.067444 
	C1242.935425,684.734192 1235.424561,685.249878 1228.802368,679.603027 
	C1223.714355,675.264404 1220.466064,669.976685 1220.212402,663.903687 
	C1219.581909,648.810730 1220.005005,633.673706 1220.005005,618.278687 
	C1224.091919,618.278687 1227.812378,618.278687 1232.000000,618.278687 
	C1232.000000,631.403259 1231.917114,644.347229 1232.024170,657.289734 
	C1232.123779,669.341553 1242.886597,677.032654 1253.952515,672.921936 
	C1259.761475,670.764160 1263.781250,665.618713 1263.944458,656.940491 
	C1264.179443,644.456238 1264.032959,631.964844 1264.064819,619.476562 
	C1264.065552,619.173950 1264.248047,618.871948 1264.437134,618.286926 
	C1268.074707,618.286926 1271.795166,618.286926 1276.000000,618.286926 
	C1276.000000,632.383667 1276.000000,646.323914 1276.000000,660.731689 
z"/>
<path fill="#00ADEE" opacity="1.000000" stroke="none" 
	d="
M1085.102539,770.000000 
	C1082.970703,770.000000 1081.324951,770.000000 1079.174805,770.000000 
	C1079.174805,778.625427 1079.174805,787.016785 1079.174805,795.698853 
	C1074.956177,795.698853 1071.236816,795.698853 1067.255981,795.698853 
	C1067.255981,773.881897 1067.255981,752.179504 1067.255981,730.238342 
	C1083.375610,730.238342 1099.297729,730.238342 1115.610352,730.238342 
	C1115.610352,733.536194 1115.610352,736.923279 1115.610352,740.814819 
	C1103.724365,740.814819 1091.669312,740.814819 1079.311035,740.814819 
	C1079.311035,746.690491 1079.311035,752.074097 1079.311035,757.964478 
	C1090.104614,757.964478 1100.826416,757.964478 1111.767944,757.964478 
	C1111.767944,762.061035 1111.767944,765.665527 1111.767944,770.000000 
	C1103.078735,770.000000 1094.333740,770.000000 1085.102539,770.000000 
z"/>
<path fill="#00ADEE" opacity="1.000000" stroke="none" 
	d="
M1097.928589,682.708252 
	C1094.171753,683.567444 1090.468872,683.953796 1086.000000,684.420044 
	C1086.000000,677.065125 1086.253784,670.297607 1085.881836,663.564758 
	C1085.720581,660.648071 1084.855347,657.430054 1083.303467,654.988647 
	C1076.229858,643.860229 1068.783691,632.969055 1061.520996,621.959961 
	C1060.844482,620.934265 1060.516479,619.678711 1059.801636,618.002747 
	C1064.127319,618.002747 1067.954224,617.686707 1071.683105,618.152832 
	C1073.252197,618.348999 1075.039795,619.912415 1075.999634,621.342957 
	C1080.804565,628.505371 1085.355591,635.837830 1090.031738,643.087402 
	C1090.646118,644.039856 1091.466431,644.859375 1092.368896,645.956238 
	C1097.516846,637.824707 1102.628906,629.985352 1107.469849,621.982056 
	C1109.289795,618.973328 1111.350098,617.466431 1114.997559,617.929871 
	C1117.776855,618.283142 1120.637085,618.000000 1124.748291,618.000000 
	C1122.584229,621.294006 1120.869019,623.874023 1119.184814,626.473938 
	C1113.169434,635.760376 1107.336426,645.171936 1101.065063,654.281921 
	C1098.784180,657.595032 1097.786255,660.811096 1097.939819,664.753113 
	C1098.166504,670.572266 1097.988403,676.407166 1097.928589,682.708252 
z"/>
<path fill="#00ADEE" opacity="1.000000" stroke="none" 
	d="
M1318.000000,618.000000 
	C1327.799561,618.000000 1337.098999,618.000000 1346.697754,618.000000 
	C1346.697754,622.043945 1346.697754,625.765320 1346.697754,629.827881 
	C1340.318237,629.827881 1334.041992,629.827881 1327.263184,629.827881 
	C1327.263184,647.870544 1327.263184,665.591187 1327.263184,683.653931 
	C1322.710693,683.653931 1318.656128,683.653931 1314.089844,683.653931 
	C1314.089844,665.954773 1314.089844,648.232727 1314.089844,630.180176 
	C1306.991943,630.180176 1300.384644,630.180176 1293.390381,630.180176 
	C1293.390381,626.132080 1293.390381,622.409302 1293.390381,618.000000 
	C1301.317871,618.000000 1309.408936,618.000000 1318.000000,618.000000 
z"/>
<path fill="#00ADEE" opacity="1.000000" stroke="none" 
	d="
M1402.001221,514.860229 
	C1402.000000,512.090149 1402.000000,509.793396 1402.000000,507.256592 
	C1420.010254,507.256592 1437.611816,507.256592 1455.607178,507.256592 
	C1455.607178,510.530487 1455.607178,513.917480 1455.607178,517.831543 
	C1449.050049,517.831543 1442.314575,517.831543 1435.079834,517.831543 
	C1435.079834,536.390930 1435.079834,554.449341 1435.079834,572.749939 
	C1430.973145,572.749939 1427.364014,572.749939 1423.244873,572.749939 
	C1423.244873,554.785461 1423.244873,536.725769 1423.244873,517.999329 
	C1416.996704,517.999329 1411.227661,518.147339 1405.478149,517.878418 
	C1404.282471,517.822449 1403.159180,516.222107 1402.001221,514.860229 
z"/>
<path fill="#00ADEE" opacity="1.000000" stroke="none" 
	d="
M1344.000000,749.000427 
	C1344.000000,761.123718 1344.000000,772.747009 1344.000000,784.866211 
	C1355.670288,784.866211 1367.055176,784.866211 1378.715698,784.866211 
	C1378.715698,788.744446 1378.715698,792.129395 1378.715698,795.759277 
	C1363.300781,795.759277 1348.044678,795.759277 1332.393799,795.759277 
	C1332.393799,774.162109 1332.393799,752.462830 1332.393799,730.380981 
	C1335.884155,730.380981 1339.604004,730.380981 1344.000000,730.380981 
	C1344.000000,736.321716 1344.000000,742.411133 1344.000000,749.000427 
z"/>
<path fill="#00ADEE" opacity="1.000000" stroke="none" 
	d="
M1159.000000,529.000061 
	C1159.000000,543.798706 1159.000000,558.097473 1159.000000,572.696899 
	C1154.957642,572.696899 1151.235840,572.696899 1147.254150,572.696899 
	C1147.254150,550.984192 1147.254150,529.385376 1147.254150,507.392822 
	C1150.861694,507.392822 1154.582520,507.392822 1159.000000,507.392822 
	C1159.000000,514.313782 1159.000000,521.406982 1159.000000,529.000061 
z"/>
<path fill="#00ADEE" opacity="1.000000" stroke="none" 
	d="
M1409.000000,787.940552 
	C1409.000000,790.740356 1409.000000,793.049805 1409.000000,795.678345 
	C1404.994019,795.678345 1401.272095,795.678345 1397.271484,795.678345 
	C1397.271484,773.896851 1397.271484,752.177124 1397.271484,730.228455 
	C1401.071655,730.228455 1404.679443,730.228455 1409.000000,730.228455 
	C1409.000000,749.285217 1409.000000,768.367737 1409.000000,787.940552 
z"/>
<path fill="#00ADEE" opacity="1.000000" stroke="none" 
	d="
M1308.000000,780.995728 
	C1308.000000,786.132141 1308.000000,790.769348 1308.000000,795.700073 
	C1303.951050,795.700073 1300.229248,795.700073 1296.251099,795.700073 
	C1296.251099,773.977539 1296.251099,752.378662 1296.251099,730.389404 
	C1299.870239,730.389404 1303.593384,730.389404 1308.000000,730.389404 
	C1308.000000,746.990967 1308.000000,763.743774 1308.000000,780.995728 
z"/>
<path fill="#FFFFFF" opacity="1.000000" stroke="none" 
	d="
M131.123047,728.833740 
	C130.846069,728.518982 130.901306,728.186035 130.956528,727.853088 
	C131.201797,727.907227 131.447067,727.961304 131.692337,728.015442 
	C131.613312,728.282104 131.534286,728.548828 131.123047,728.833740 
z"/>
<path fill="#FFFFFF" opacity="1.000000" stroke="none" 
	d="
M771.310303,179.038071 
	C771.619385,178.687256 772.106750,178.636246 772.594116,178.585236 
	C772.225647,178.836121 771.857117,179.087006 771.310303,179.038071 
z"/>
<path fill="#FFFFFF" opacity="1.000000" stroke="none" 
	d="
M174.931183,130.616455 
	C174.913223,131.143921 174.667313,131.406158 174.421417,131.668411 
	C174.515366,131.229355 174.609314,130.790298 174.931183,130.616455 
z"/>
<path fill="#FFFFFF" opacity="1.000000" stroke="none" 
	d="
M462.178253,397.945221 
	C475.179413,398.891632 486.359283,403.497589 496.356201,410.923187 
	C511.807190,422.400055 519.711792,438.031189 522.102600,457.023804 
	C524.964539,479.759430 518.409424,499.148499 502.271942,515.059631 
	C491.370667,525.807922 477.764160,532.074463 462.487518,532.819946 
	C445.950592,533.626892 429.343811,533.002686 412.380493,533.002686 
	C412.380493,488.460907 412.380493,443.090973 412.380493,397.000000 
	C414.121368,397.000000 416.040680,397.000000 417.959961,397.000000 
	C430.785126,397.000000 443.610535,396.965424 456.435242,397.040222 
	C458.200165,397.050507 459.961945,397.603546 462.178253,397.945221 
z"/>
<path fill="#FFFFFF" opacity="1.000000" stroke="none" 
	d="
M258.470459,853.483765 
	C258.283325,854.332642 257.928711,854.980164 257.157471,856.388489 
	C257.245178,854.796997 257.288208,854.016663 257.623291,853.083130 
	C258.044617,853.047424 258.173798,853.164856 258.470459,853.483765 
z"/>
<path fill="#FFFFFF" opacity="1.000000" stroke="none" 
	d="
M53.540195,259.460754 
	C52.048084,258.965271 50.749687,258.305450 49.451290,257.645599 
	C49.535469,257.399078 49.619648,257.152527 49.703827,256.906006 
	C51.044872,257.374908 52.385921,257.843842 53.898552,258.614197 
	C53.958061,259.042542 53.845985,259.169495 53.540195,259.460754 
z"/>
<path fill="#FFFFFF" opacity="1.000000" stroke="none" 
	d="
M1275.010254,559.762207 
	C1275.002319,554.676086 1275.002319,550.067566 1275.002319,545.014038 
	C1282.712891,545.014038 1289.992188,544.708557 1297.232666,545.107483 
	C1303.401733,545.447327 1307.515747,550.923584 1305.678833,555.689331 
	C1303.781982,560.610901 1298.845215,561.239685 1294.785889,561.757507 
	C1288.740723,562.528503 1282.521729,561.980652 1276.379272,561.863342 
	C1275.915405,561.854492 1275.471436,560.805359 1275.010254,559.762207 
z"/>
<path fill="#FFFFFF" opacity="1.000000" stroke="none" 
	d="
M1284.983154,534.000000 
	C1281.525024,534.000000 1278.553101,534.000000 1275.295410,534.000000 
	C1275.295410,528.605042 1275.295410,523.549255 1275.295410,517.596313 
	C1282.665283,518.054443 1289.871460,518.310913 1297.030640,519.032227 
	C1300.363647,519.368103 1301.989502,521.714539 1302.056641,525.269653 
	C1302.127686,529.026062 1300.886230,531.986267 1297.181885,532.794983 
	C1293.371704,533.626892 1289.380859,533.632690 1284.983154,534.000000 
z"/>
<path fill="#FFFFFF" opacity="1.000000" stroke="none" 
	d="
M1185.982178,642.304810 
	C1193.178223,659.603027 1178.213501,675.043762 1165.351929,674.096741 
	C1154.809082,673.320312 1145.466919,663.997742 1144.923340,653.387634 
	C1144.452271,644.196045 1147.440430,636.987976 1155.234375,631.958984 
	C1165.791626,625.146912 1179.979736,629.445435 1185.982178,642.304810 
z"/>
<path fill="#FFFFFF" opacity="1.000000" stroke="none" 
	d="
M1108.826416,526.333008 
	C1114.875000,535.501648 1114.979248,544.580261 1108.883789,553.162048 
	C1101.341064,563.781494 1089.947998,560.717041 1079.233154,560.876404 
	C1079.233154,546.607544 1079.233154,532.678772 1079.233154,518.191956 
	C1089.773193,518.007568 1100.669922,516.024658 1108.826416,526.333008 
z"/>
<path fill="#FFFFFF" opacity="1.000000" stroke="none" 
	d="
M1221.381592,545.479126 
	C1214.828491,545.869995 1208.342896,545.869995 1201.327515,545.869995 
	C1204.718750,537.892944 1208.040405,530.079590 1211.472290,522.006897 
	C1214.877930,529.885803 1218.163452,537.487061 1221.381592,545.479126 
z"/>
<path fill="#FFFFFF" opacity="1.000000" stroke="none" 
	d="
M1148.683105,761.741211 
	C1149.960815,758.873291 1150.965332,756.303650 1152.056030,753.770996 
	C1153.141724,751.250488 1154.313599,748.767151 1155.796021,745.499817 
	C1159.295532,753.566589 1162.561523,761.094727 1165.942261,768.887878 
	C1159.122803,768.887878 1152.832153,768.887878 1146.039917,768.887878 
	C1146.899170,766.449585 1147.673462,764.252563 1148.683105,761.741211 
z"/>
</svg>