<?xml version="1.0" encoding="UTF-8"?>
<svg version="1.1" xmlns="http://www.w3.org/2000/svg" width="1589" height="908">
<path d="M0 0 C32.0215746 -1.60404919 63.98220839 9.08410294 88.02148438 30.296875 C123.08497736 62.19519922 136.46484069 109.3737335 142 155 C142.13277344 156.03382813 142.26554688 157.06765625 142.40234375 158.1328125 C142.93105491 163.10124893 143.04114531 168.06511171 143.0546875 173.05859375 C143.05766846 174.15518311 143.06064941 175.25177246 143.0637207 176.3815918 C143.06195475 181.25455565 143.03841974 186.12719482 143 191 C101.43374138 185.08420289 60.16871294 170.62724759 28 143 C27.1440625 142.2678125 26.288125 141.535625 25.40625 140.78125 C-2.69923542 116.1455776 -19.56413038 80.754768 -22.84326172 43.60961914 C-23.14072368 38.65701647 -23.1435535 33.70996811 -23.125 28.75 C-23.12886719 27.70070313 -23.13273438 26.65140625 -23.13671875 25.5703125 C-23.13043479 20.60598344 -23.05935763 15.87640815 -22 11 C-17.84766666 12.59025532 -15.32231988 15.63795012 -12.4375 18.875 C-11.9122876 19.45435303 -11.3870752 20.03370605 -10.84594727 20.63061523 C-9.75702289 21.83194471 -8.67036622 23.03533344 -7.5859375 24.24072266 C-5.22084979 26.8643098 -2.82825751 29.46232992 -0.4375 32.0625 C0.47030272 33.0531558 1.37785482 34.04404132 2.28515625 35.03515625 C5.02222787 38.02454703 7.76096752 41.0124059 10.5 44 C13.23903248 46.9875941 15.97777213 49.97545297 18.71484375 52.96484375 C23.46607559 58.15297047 28.22608074 63.33273561 33 68.5 C38.22812079 74.15888968 43.43844089 79.83382832 48.64111328 85.51611328 C50.92642496 88.01164407 53.2132958 90.50574527 55.5 93 C56.41667404 93.99999325 57.3333407 94.99999324 58.25 96 C58.70375 96.495 59.1575 96.99 59.625 97.5 C63.75 102 63.75 102 65.12475586 103.49975586 C66.04220685 104.50059668 66.95968736 105.50141045 67.87719727 106.50219727 C70.15710551 108.98911261 72.43651293 111.47648315 74.71484375 113.96484375 C79.46607559 119.15297047 84.22608074 124.33273561 89 129.5 C94.21194697 135.14138322 99.40620469 140.79865577 104.59277344 146.46337891 C107.12328 149.22656564 109.65551386 151.98816912 112.1875 154.75 C113.11849663 155.76561854 114.04948689 156.78124292 114.98046875 157.796875 C115.64691406 158.52390625 116.31335938 159.2509375 117 160 C115.64585565 157.08729691 114.09167214 154.67528728 112.09375 152.1640625 C111.52027832 151.43727295 110.94680664 150.7104834 110.35595703 149.96166992 C109.4372583 148.80501831 109.4372583 148.80501831 108.5 147.625 C103.83208725 141.69021787 99.30050594 135.71401509 94.96411133 129.53271484 C91.17389639 124.16761205 87.1854255 118.9613969 83.1875 113.75 C78.19141436 107.23481064 73.27392561 100.67976039 68.5 94 C63.80214536 87.43017246 58.97404143 80.97410658 54.0625 74.5625 C45.99635308 64.03281977 38.12688479 53.36757408 30.29101562 42.66601562 C28.5705928 40.31784445 26.84827953 37.97107539 25.125 35.625 C24.56119629 34.85639648 23.99739258 34.08779297 23.41650391 33.29589844 C20.20203119 28.93101139 16.94168677 24.60634824 13.6328125 20.3125 C12.90304199 19.3642334 12.17327148 18.4159668 11.42138672 17.43896484 C10.00380505 15.60187845 8.58116888 13.76867815 7.15283203 11.93994141 C6.50942871 11.10640137 5.86602539 10.27286133 5.203125 9.4140625 C4.63239258 8.6813916 4.06166016 7.9487207 3.47363281 7.19384766 C1.91787706 4.87774077 0.94189832 2.61925937 0 0 Z M119 162 C119.66 163.32 120.32 164.64 121 166 C121 165.01 121 164.02 121 163 C120.34 162.67 119.68 162.34 119 162 Z " fill="#F6921E" transform="translate(605,610)"/>
<path d="M0 0 C-5.14214822 6.4644149 -11.15946737 11.88248484 -17.2578125 17.41503906 C-20.04148537 19.94749482 -22.80073758 22.50620605 -25.5625 25.0625 C-31.20063567 30.26966306 -36.85556207 35.45834022 -42.51611328 40.64111328 C-45.01164407 42.92642496 -47.50574527 45.2132958 -50 47.5 C-50.99999325 48.41667404 -51.99999324 49.3333407 -53 50.25 C-53.495 50.70375 -53.99 51.1575 -54.5 51.625 C-59 55.75 -59 55.75 -60.49975586 57.12475586 C-61.50059668 58.04220685 -62.50141045 58.95968736 -63.50219727 59.87719727 C-65.98911261 62.15710551 -68.47648315 64.43651293 -70.96484375 66.71484375 C-76.15297047 71.46607559 -81.33273561 76.22608074 -86.5 81 C-92.15888968 86.22812079 -97.83382832 91.43844089 -103.51611328 96.64111328 C-106.01164405 98.92642494 -108.50576208 101.21327749 -111 103.5 C-113.9875941 106.23903248 -116.97545297 108.97777213 -119.96484375 111.71484375 C-120.95577011 112.62235112 -121.94665545 113.5299033 -122.9375 114.4375 C-123.42847168 114.88722168 -123.91944336 115.33694336 -124.42529297 115.80029297 C-127.61173542 118.72128496 -130.78908867 121.65191266 -133.96240234 124.5871582 C-139.93115903 130.10803902 -145.93809418 135.58123091 -152 141 C-145.32774074 136.83696645 -139.13695875 132.09403962 -132.91723633 127.29736328 C-127.57956996 123.18828492 -122.18537583 119.16623361 -116.75 115.1875 C-109.83312765 110.12154136 -102.99309952 104.96440186 -96.1875 99.75 C-89.99209621 95.00492971 -83.7619243 90.34530732 -77.37670898 85.85961914 C-72.06541608 82.10258642 -66.91192156 78.14621107 -61.75 74.1875 C-55.23472432 69.19152322 -48.67976426 64.27392837 -42 59.5 C-35.43016203 54.80213791 -28.97432339 49.97377127 -22.5625 45.0625 C-15.5340026 39.68275088 -8.48480238 34.33451521 -1.375 29.0625 C-0.57521729 28.4651001 0.22456543 27.8677002 1.04858398 27.25219727 C1.78794189 26.70619873 2.5272998 26.1602002 3.2890625 25.59765625 C3.93568848 25.11820557 4.58231445 24.63875488 5.24853516 24.14477539 C7 23 7 23 10 22 C11.10916678 54.45339828 1.69803858 85.865525 -20.375 110.1875 C-44.47845087 135.90593647 -75.08549805 149.90500164 -109 158 C-110.22855713 158.29366455 -110.22855713 158.29366455 -111.48193359 158.59326172 C-134.03108492 163.83565325 -156.89572273 165.61980108 -180 165 C-179.57053094 155.62618052 -177.81674201 146.82363467 -175.5 137.75 C-175.3249292 137.05567871 -175.1498584 136.36135742 -174.96948242 135.64599609 C-170.12328097 116.55384057 -163.4508434 98.30927151 -154 81 C-153.51515137 80.09266113 -153.51515137 80.09266113 -153.02050781 79.16699219 C-146.22825005 66.49486949 -137.87934966 55.42302457 -128 45 C-127.31260742 44.25580811 -127.31260742 44.25580811 -126.61132812 43.49658203 C-113.83979885 29.72012167 -99.12496844 19.63875792 -82 12 C-80.81277344 11.45730469 -79.62554687 10.91460938 -78.40234375 10.35546875 C-54.67358592 0.15649232 -25.58651532 -4.43594232 0 0 Z " fill="#86C244" transform="translate(282,586)"/>
<path d="M0 0 C-0.54028487 6.94280002 -1.60625683 13.59613487 -3.1875 20.375 C-3.51850708 21.80175049 -3.51850708 21.80175049 -3.85620117 23.25732422 C-11.87994737 57.09672361 -24.85798994 91.0216149 -48.92578125 116.76953125 C-50.82480087 118.81160319 -52.59837655 120.91451582 -54.375 123.0625 C-76.50748563 148.34226569 -112.18250613 162.71400027 -145 166 C-147.65238202 166.09864779 -150.27817995 166.16359267 -152.9296875 166.16796875 C-153.64609406 166.17129715 -154.36250061 166.17462555 -155.10061646 166.17805481 C-156.59799565 166.18307354 -158.09538584 166.18546472 -159.59277344 166.18530273 C-161.89015563 166.18751459 -164.18707587 166.20579107 -166.484375 166.22460938 C-167.94531087 166.22753929 -169.406249 166.22952677 -170.8671875 166.23046875 C-171.55360321 166.23765427 -172.24001892 166.24483978 -172.94723511 166.25224304 C-177.77113979 166.22886021 -177.77113979 166.22886021 -180 164 C-176.60983874 160.51449046 -173.18854101 157.10835104 -169.5 153.9375 C-165.44065597 150.43888248 -161.53344979 146.78989798 -157.625 143.125 C-153.45001793 139.21120988 -149.26874741 135.3118915 -145 131.5 C-140.77599866 127.7265588 -136.63366216 123.87166228 -132.5 120 C-127.55259106 115.36679019 -122.56896115 110.78350831 -117.515625 106.265625 C-113.96731202 103.0699394 -110.46422274 99.82624735 -106.95874023 96.58374023 C-103.29289068 93.19297714 -99.61975871 89.8104369 -95.9375 86.4375 C-95.44580322 85.98705322 -94.95410645 85.53660645 -94.44750977 85.07250977 C-92.47211162 83.26321506 -90.4963019 81.45437012 -88.52050781 79.64550781 C-82.83677654 74.44135308 -77.16040815 69.22952368 -71.5 64 C-65.84111032 58.77187921 -60.16617168 53.56155911 -54.48388672 48.35888672 C-51.98835593 46.07357504 -49.49425443 43.78670452 -47 41.5 C-46.01563177 40.59764887 -45.03125674 39.69530514 -44.046875 38.79296875 C-43.30727539 38.11500244 -43.30727539 38.11500244 -42.55273438 37.42333984 C-38.03515625 33.28222656 -33.51757812 29.14111328 -29 25 C-35.67225926 29.16303355 -41.86304125 33.90596038 -48.08276367 38.70263672 C-53.42043004 42.81171508 -58.81462417 46.83376639 -64.25 50.8125 C-71.16687235 55.87845864 -78.00690048 61.03559814 -84.8125 66.25 C-91.00790379 70.99507029 -97.2380757 75.65469268 -103.62329102 80.14038086 C-108.93458392 83.89741358 -114.08807844 87.85378893 -119.25 91.8125 C-125.76527568 96.80847678 -132.32023574 101.72607163 -139 106.5 C-145.56983797 111.19786209 -152.02567661 116.02622873 -158.4375 120.9375 C-165.4659974 126.31724912 -172.51519762 131.66548479 -179.625 136.9375 C-180.42478271 137.5348999 -181.22456543 138.1322998 -182.04858398 138.74780273 C-182.78794189 139.29380127 -183.5272998 139.8397998 -184.2890625 140.40234375 C-184.93568848 140.88179443 -185.58231445 141.36124512 -186.24853516 141.85522461 C-188 143 -188 143 -191 144 C-189.82706052 104.88853514 -178.707373 72.42695452 -149.875 45 C-110.47635995 10.07599774 -51.29284951 -1.52354999 0 0 Z " fill="#F6921E" transform="translate(800,153)"/>
<path d="M0 0 C36.29559642 3.76591161 73.25094796 16.79805336 103 38 C103.6089209 38.43393066 104.2178418 38.86786133 104.84521484 39.31494141 C137.56395455 63.02688714 158.73614625 97.93709936 165.17724609 137.82104492 C166.29015703 146.19649944 166.2913721 154.62803175 166.3125 163.0625 C166.31617584 163.7872049 166.31985168 164.51190979 166.32363892 165.25857544 C166.32913312 167.33024305 166.31845886 169.40106922 166.30078125 171.47265625 C166.29216064 172.68187744 166.28354004 173.89109863 166.2746582 175.13696289 C166 178 166 178 164 180 C158.50754954 174.59693843 153.07254597 169.21417432 148.06640625 163.3515625 C145.15787838 160.04166878 142.13916839 156.83858003 139.125 153.625 C134.44792584 148.63522338 129.82070044 143.61002545 125.26171875 138.51171875 C121.07140728 133.8582295 116.80653832 129.27312358 112.55273438 124.67773438 C104.79926826 116.30008986 97.06734341 107.90295374 89.35888672 99.48388672 C87.07357504 96.98835593 84.7867042 94.49425473 82.5 92 C81.58332596 91.00000675 80.6666593 90.00000676 79.75 89 C79.29625 88.505 78.8425 88.01 78.375 87.5 C74.25 83 74.25 83 72.87524414 81.50024414 C71.95779315 80.49940332 71.04031264 79.49858955 70.12280273 78.49780273 C67.84289449 76.01088739 65.56348707 73.52351685 63.28515625 71.03515625 C58.53392399 65.84702907 53.77382477 60.6673521 49 55.5 C40.59377493 46.39812482 32.19252506 37.2958164 24 28 C28.16303355 34.67225926 32.90596038 40.86304125 37.70263672 47.08276367 C41.81171508 52.42043004 45.83376639 57.81462417 49.8125 63.25 C54.87845864 70.16687235 60.03559814 77.00690048 65.25 83.8125 C69.99507029 90.00790379 74.65469268 96.2380757 79.14038086 102.62329102 C82.89741358 107.93458392 86.85378893 113.08807844 90.8125 118.25 C95.80847678 124.76527568 100.72607163 131.32023574 105.5 138 C110.19786929 144.56984803 115.02650817 151.02545463 119.9375 157.4375 C125.30400595 164.4545393 130.65738026 171.480114 135.9375 178.5625 C136.5348999 179.35390381 137.1322998 180.14530762 137.74780273 180.96069336 C138.29380127 181.69682861 138.8397998 182.43296387 139.40234375 183.19140625 C139.88179443 183.83279541 140.36124512 184.47418457 140.85522461 185.13500977 C142.05564048 187.0906457 142.57027468 188.75753604 143 191 C109.31990109 191.65319957 77.18808983 181.02926585 52.671875 157.57421875 C51.79015625 156.72472656 50.9084375 155.87523437 50 155 C49.36578125 154.42894531 48.7315625 153.85789063 48.078125 153.26953125 C12.56506245 120.37767094 2.19531368 62.92270983 0 17 C-0.16228605 11.33025957 -0.13866269 5.66976343 0 0 Z " fill="#00ADEE" transform="translate(150,102)"/>
<path d="M0 0 C3.47925313 1.15975104 3.85256235 1.8571235 5.78515625 4.83984375 C6.31077148 5.64623291 6.83638672 6.45262207 7.37792969 7.28344727 C7.93383789 8.15928467 8.48974609 9.03512207 9.0625 9.9375 C9.64032227 10.83976318 10.21814453 11.74202637 10.81347656 12.67163086 C38.42362719 56.21745788 56.94491287 105.97752198 46 158 C43.10203243 170.29919413 38.86248258 181.82196337 33 193 C32.66629395 193.6492041 32.33258789 194.2984082 31.98876953 194.96728516 C22.89723892 212.51033653 9.13083281 232.43726677 -8 243 C-8.66 243 -9.32 243 -10 243 C-8.91403064 212.06681442 -7.74367388 181.13781708 -6.4921875 150.2109375 C-6.44308527 148.99691301 -6.44308527 148.99691301 -6.39299107 147.75836277 C-5.92320587 136.145055 -5.45115023 124.53183987 -4.97851562 112.91864777 C-4.49560589 101.05230139 -4.0131589 89.1859366 -3.53285706 77.31948435 C-3.34143155 72.59159009 -3.14902235 67.86373725 -2.95581412 63.13591552 C-2.8371891 60.22837484 -2.71939306 57.32080101 -2.6018219 54.41321754 C-2.52141667 52.43107484 -2.43999924 50.44897329 -2.35855103 48.46687317 C-2.28715912 46.69522545 -2.28715912 46.69522545 -2.21432495 44.88778687 C-2.17267653 43.86505362 -2.1310281 42.84232037 -2.0881176 41.7885952 C-2.00611528 39.19352593 -2 36.59636455 -2 34 C-11.57 100.33 -21.14 166.66 -31 235 C-34 235 -34 235 -36.12890625 233.0859375 C-59.99701002 206.49771276 -75.04266107 174.71327696 -73.1640625 138.31542969 C-69.38690893 85.00810166 -37.75138328 36.24800961 0 0 Z " fill="#86C244" transform="translate(484,3)"/>
<path d="M0 0 C0.3034762 20.74673102 -0.53495366 41.41709146 -1.41350365 62.13926578 C-1.6136698 66.88956045 -1.80755741 71.64011154 -2.0020752 76.39064026 C-2.37002402 85.35600756 -2.74278838 94.32116686 -3.11767817 103.28624636 C-3.79006069 119.36830564 -4.45498755 135.45067345 -5.11676931 151.53317219 C-5.34863304 157.16291009 -5.58291524 162.79254048 -5.81925201 168.42209232 C-5.96579558 171.92094689 -6.11068239 175.41986879 -6.2551899 178.91880798 C-6.32218351 180.53205439 -6.38988505 182.14527158 -6.45837212 183.75845528 C-6.55224341 185.9715401 -6.64353291 188.18471802 -6.73425293 190.39793396 C-6.81168354 192.2490436 -6.81168354 192.2490436 -6.89067841 194.1375494 C-7.02141627 198.75666014 -7 203.37903945 -7 208 C2.57 141.67 12.14 75.34 22 7 C46.1461981 27.69674123 60.57147608 56.14987924 63.60180664 87.80688477 C67.46102233 139.00581296 40.97180634 185.12736804 9.36328125 223.265625 C3.49089131 230.06012575 -2.60395744 236.69511244 -9 243 C-13.6429979 241.50607243 -15.55786929 237.60411637 -18 233.6875 C-18.71023315 232.56601562 -18.71023315 232.56601562 -19.43481445 231.421875 C-37.47464415 202.63849518 -51.839789 172.92555647 -57 139 C-57.19078125 137.7728125 -57.3815625 136.545625 -57.578125 135.28125 C-62.23129779 95.90862231 -51.23972207 56.85198023 -26.87158203 25.71069336 C-6.22842308 0 -6.22842308 0 0 0 Z " fill="#00ADEE" transform="translate(423,665)"/>
<path d="M0 0 C4.50407144 4.16044957 8.84497001 8.49135044 13 13 C13 13.33 13 13.66 13 14 C3.27444779 14.95885209 -6.438773 15.29858736 -16.20117188 15.55664062 C-17.90446778 15.60413497 -19.60775535 15.65192895 -21.31103516 15.69999695 C-24.95795266 15.80229687 -28.60491863 15.90253859 -32.25193787 16.00114441 C-38.03854036 16.15764725 -43.8250004 16.31904218 -49.6114502 16.4810791 C-60.86513948 16.79554827 -72.1189628 17.10504742 -83.37280273 17.41407013 C-97.66744298 17.80686166 -111.96201274 18.20216488 -126.25647402 18.60141706 C-131.98780476 18.76133923 -137.71919172 18.91899451 -143.45063686 19.07476044 C-147.04403444 19.17284857 -150.63737878 19.27279469 -154.23071289 19.37317848 C-155.87355934 19.41869696 -157.51642655 19.46347446 -159.15931702 19.50737572 C-160.30593056 19.53806869 -160.30593056 19.53806869 -161.47570801 19.56938171 C-162.13266663 19.58672458 -162.78962524 19.60406744 -163.4664917 19.62193584 C-173.99702548 19.93324232 -184.46649191 20.4733246 -195 21 C-128.67 25.95 -62.34 30.9 6 36 C6 39.60437126 5.46775776 39.92444985 3.02734375 42.40625 C2.38289307 43.06230225 1.73844238 43.71835449 1.07446289 44.39428711 C0.36926514 45.08917236 -0.33593262 45.78405762 -1.0625 46.5 C-1.78767822 47.21615479 -2.51285645 47.93230957 -3.26000977 48.67016602 C-27.83436632 72.47582324 -58.44259281 84.59795449 -92.55761719 84.3515625 C-140.82633755 83.29874582 -186.68969087 58.34287671 -223 28 C-223.86367187 27.2884375 -224.72734375 26.576875 -225.6171875 25.84375 C-229.6461951 22.44209653 -229.6461951 22.44209653 -231 21 C-231 20.34 -231 19.68 -231 19 C-228.6468408 16.98917457 -226.28315553 15.10824053 -223.8125 13.25 C-223.05219482 12.67580322 -222.29188965 12.10160645 -221.50854492 11.51000977 C-154.99030251 -38.15506153 -68.17312384 -58.8529588 0 0 Z " fill="#F6921E" transform="translate(231,408)"/>
<path d="M0 0 C107.26890756 0 107.26890756 0 135 24 C135.82628906 24.63679688 136.65257812 25.27359375 137.50390625 25.9296875 C153.46094829 39.16479279 163.03444487 61.80761968 165 82 C166.77606923 109.43383461 160.81898046 134.40248485 142.5 155.375 C141.01897851 156.93490752 139.51964242 158.47769154 138 160 C137.32710937 160.68449219 136.65421875 161.36898437 135.9609375 162.07421875 C100.12117696 196.23608787 44.01907648 187 0 187 C0 125.29 0 63.58 0 0 Z M27 25 C27 70.21 27 115.42 27 162 C78.21192522 164.12885861 78.21192522 164.12885861 119.4609375 141.7265625 C128.45044692 132.49160572 134.545004 120.63476389 137 108 C137.226875 106.906875 137.45375 105.81375 137.6875 104.6875 C139.49464504 83.36318848 134.84916055 63.67801419 121.265625 46.8515625 C109.05611583 33.65068292 93.29043439 28.14371534 76 25 C59.83 25 43.66 25 27 25 Z " fill="#00ADEE" transform="translate(384,371)"/>
<path d="M0 0 C44.88 0 89.76 0 136 0 C136 8.25 136 16.5 136 25 C99.7 25 63.4 25 26 25 C26 44.14 26 63.28 26 83 C58.34 83 90.68 83 124 83 C124 91.25 124 99.5 124 108 C91.66 108 59.32 108 26 108 C26 134.07 26 160.14 26 187 C17.42 187 8.84 187 0 187 C0 125.29 0 63.58 0 0 Z " fill="#00ADEE" transform="translate(832,371)"/>
<path d="M0 0 C4.39194528 -0.2992677 8.7783497 -0.51546389 13.17749023 -0.65917969 C14.66910176 -0.7191213 16.16001994 -0.80072554 17.64916992 -0.90527344 C29.84727288 -1.73947156 29.84727288 -1.73947156 34.65673828 2.14672852 C36.62093956 4.72225297 38.32379542 7.32450268 39.91970825 10.14178467 C41.44190774 12.76012776 43.15758992 15.2301873 44.86985779 17.72680664 C47.29017266 21.26797115 49.63741269 24.85768431 52 28.4375 C54.10196454 31.61213986 56.20677979 34.78488151 58.3125 37.95703125 C59.12195068 39.17709869 59.12195068 39.17709869 59.94775391 40.42181396 C63.9709762 46.47634874 68.03789355 52.50015908 72.125 58.51171875 C72.99306274 59.78972603 72.99306274 59.78972603 73.87866211 61.09355164 C76.14432659 64.42822766 78.41044683 67.76254153 80.68554688 71.09078979 C82.25260707 73.38341307 83.81424297 75.67964562 85.375 77.9765625 C86.08100342 79.00368599 86.08100342 79.00368599 86.80126953 80.05155945 C90 84.77294671 90 84.77294671 90 87 C95.10193909 82.44330631 98.53410712 76.95330419 102.25 71.25 C103.68253632 69.07612572 105.11616455 66.90297067 106.55078125 64.73046875 C106.91788712 64.17330673 107.28499298 63.61614471 107.66322327 63.042099 C111.53136601 57.17705894 115.47896946 51.36684413 119.4375 45.5625 C120.13367432 44.5413208 120.82984863 43.5201416 121.54711914 42.46801758 C122.96808734 40.38383292 124.38923102 38.2997679 125.81054688 36.21582031 C128.09276891 32.86374308 130.36758614 29.50674312 132.640625 26.1484375 C133.40952638 25.0135497 134.17848735 23.87870227 134.94750977 22.74389648 C136.39738104 20.60377587 137.84587734 18.46272283 139.29272461 16.32055664 C140.59394298 14.4018432 141.91131092 12.4939502 143.24707031 10.59912109 C145.02092765 8.08217504 145.02092765 8.08217504 146.26074219 5.52978516 C147.65397152 3.03353671 148.63494772 1.62658766 151 0 C156.32532103 -0.9723426 161.50332976 -0.755335 166.875 -0.5 C168.34104895 -0.45983428 169.80720334 -0.42333884 171.2734375 -0.390625 C174.85116254 -0.30283567 178.4249086 -0.16501398 182 0 C179.11878315 5.37295815 176.11941952 10.45407689 172.5 15.375 C168.42437021 20.97792007 164.46461944 26.64989601 160.5625 32.375 C159.73069214 33.59437256 159.73069214 33.59437256 158.88208008 34.83837891 C157.77622767 36.46008037 156.67067296 38.08198488 155.56542969 39.70410156 C148.13027673 50.60868335 140.60360883 61.44873459 133.05908203 72.27783203 C128.20473804 79.25198696 123.38555119 86.24915744 118.60009766 93.27075195 C118.12491699 93.96773193 117.64973633 94.66471191 117.16015625 95.3828125 C116.47667618 96.41464157 116.47667618 96.41464157 115.77938843 97.46731567 C114 100 114 100 111.76123047 102.68092346 C104.50903444 111.83390414 103.71421143 119.0178983 103.90234375 130.45703125 C103.89667691 132.09756749 103.88704781 133.73809431 103.87367249 135.37858582 C103.84927473 139.65186986 103.87792047 143.92313264 103.91845703 148.19622803 C103.95032314 152.57424304 103.93086803 156.95201648 103.91601562 161.33007812 C103.89440627 169.88743191 103.93370996 178.44287536 104 187 C95.42 187 86.84 187 78 187 C78.04882324 183.77101929 78.04882324 183.77101929 78.09863281 180.47680664 C78.19823839 173.29636252 78.23024557 166.1167 78.23059464 158.93560123 C78.23281774 154.58892011 78.25651518 150.24474844 78.33251953 145.89868164 C79.49729831 120.60242838 79.49729831 120.60242838 68.03857422 99.04516602 C67.51108582 98.5242337 66.98359741 98.00330139 66.44012451 97.46658325 C64.43436602 95.42397389 62.92248741 93.14411049 61.37109375 90.74609375 C60.8797998 90.02591064 60.38850586 89.30572754 59.88232422 88.5637207 C59.40553223 87.86206787 58.92874023 87.16041504 58.4375 86.4375 C57.3452072 84.8358317 56.25275666 83.23427097 55.16015625 81.6328125 C54.36569092 80.46733887 54.36569092 80.46733887 53.55517578 79.27832031 C51.17000055 75.78405732 48.77322368 72.29781521 46.375 68.8125 C45.92890381 68.164021 45.48280762 67.51554199 45.02319336 66.84741211 C44.12978669 65.54878228 43.23631372 64.25019806 42.34277344 62.95166016 C40.06091481 59.63508236 37.78054245 56.3174829 35.5 53 C34.58334024 51.66666192 33.66667358 50.33332858 32.75 49 C30.91666667 46.33333333 29.08333333 43.66666667 27.25 41 C26.7960083 40.33967773 26.3420166 39.67935547 25.87426758 38.99902344 C24.95993174 37.66902133 24.04570602 36.3389435 23.1315918 35.00878906 C20.80517227 31.62385073 18.47670535 28.24035157 16.14453125 24.859375 C0 1.44357929 0 1.44357929 0 0 Z " fill="#00ADEE" transform="translate(591,371)"/>
<path d="M0 0 C0.65058529 2.83231547 1.29556713 5.66572201 1.9375 8.5 C2.21110352 9.68722656 2.21110352 9.68722656 2.49023438 10.8984375 C8.09265937 35.752832 6.70312482 62.05922865 -7 84 C-14.0620433 94.2940415 -22.752988 101.4451796 -33.625 107.375 C-34.53886475 107.87616333 -34.53886475 107.87616333 -35.47119141 108.38745117 C-39.88351607 110.6896109 -44.13856573 111.93756734 -49 113 C-48.30068142 108.14338631 -46.43281761 103.92133891 -44.52734375 99.44140625 C-44.17216171 98.59600281 -43.81697968 97.75059937 -43.45103455 96.87957764 C-42.28424724 94.105346 -41.1109131 91.33393484 -39.9375 88.5625 C-39.12929372 86.64430392 -38.32151833 84.72592624 -37.51416016 82.80737305 C-35.84808505 78.85032096 -34.1793343 74.89441383 -32.50830078 70.93945312 C-30.08198744 65.19635219 -27.66297235 59.45020168 -25.24609375 53.703125 C-21.50155804 44.80032665 -17.75244266 35.89946831 -14 27 C-18.94107173 35.59383967 -23.81236315 44.2209242 -28.58554077 52.90957642 C-30.30154246 56.03244969 -32.02228991 59.15270874 -33.7421875 62.2734375 C-34.09304916 62.91027969 -34.44391083 63.54712189 -34.80540466 64.20326233 C-38.27087614 70.49317973 -41.73912789 76.78153592 -45.21920776 83.06338501 C-46.16081079 84.76428884 -47.10009289 86.46647686 -48.03930664 88.16870117 C-51.20913635 93.88657443 -54.47354723 99.49448333 -58 105 C-60.76661775 101.75910492 -61.92091935 98.69232756 -63.125 94.625 C-63.45757813 93.52414063 -63.79015625 92.42328125 -64.1328125 91.2890625 C-68.21075361 75.82227686 -66.59050743 59.36478216 -59.25 45.125 C-48.97079888 27.9157109 -22.12052841 0 0 0 Z M-13 23 C-12 25 -12 25 -12 25 Z " fill="#00ADEE" transform="translate(667,31)"/>
<path d="M0 0 C15.78954943 13.24927492 29.82532685 31.24099536 35.9375 51.25 C13.03307807 60.36580672 -15.64291156 60.60171671 -38.375 51.0625 C-45.10628011 48.045556 -50.65288611 44.29960456 -56.0625 39.25 C-56.82949219 38.57324219 -57.59648438 37.89648438 -58.38671875 37.19921875 C-68.22228642 28.06499886 -73.79552372 16.78424282 -78.0625 4.25 C-74.6127885 3.10009617 -74.16794671 3.35060671 -70.97875977 4.734375 C-70.15299438 5.08695374 -69.327229 5.43953247 -68.47644043 5.80279541 C-67.12878601 6.39541168 -67.12878601 6.39541168 -65.75390625 7 C-64.81123901 7.40522888 -63.86857178 7.81045776 -62.89733887 8.22796631 C-59.8028062 9.56012565 -56.71404762 10.90517721 -53.625 12.25 C-50.43171265 13.62775059 -47.23694732 15.00203331 -44.042099 16.37615967 C-41.8813601 17.30577099 -39.72109473 18.23648372 -37.56129456 19.16827393 C-27.44980349 23.52776838 -17.29567044 27.78078203 -7.125 32 C-5.57688141 32.64317409 -4.028785 33.28640155 -2.48071289 33.9296875 C0.99119939 35.37178642 4.46401583 36.81169056 7.9375 38.25 C-0.88312976 33.18851147 -9.72984045 28.17977392 -18.625 23.25 C-19.7603418 22.61989014 -20.89568359 21.98978027 -22.06542969 21.34057617 C-28.37609677 17.83951058 -34.69230868 14.34853838 -41.01171875 10.86328125 C-41.66632584 10.50225311 -42.32093292 10.14122498 -42.99537659 9.76925659 C-46.16499754 8.02147268 -49.33514298 6.27464926 -52.50610352 4.52929688 C-58.04868516 1.4761502 -63.58265068 -1.58546713 -69.0625 -4.75 C-68.7325 -5.74 -68.4025 -6.73 -68.0625 -7.75 C-65.48450296 -8.77882004 -63.03103648 -9.61277164 -60.375 -10.375 C-59.66666016 -10.5915625 -58.95832031 -10.808125 -58.22851562 -11.03125 C-37.39917057 -17.26274381 -17.1321766 -13.174511 0 0 Z " fill="#00ADEE" transform="translate(841.0625,611.75)"/>
<path d="M0 0 C15.72296469 4.06628397 29.08661381 15.13816092 37.4296875 28.89453125 C49.46328707 52.69232144 46.53494856 80.20805135 38.57275391 104.79150391 C37.42805323 108.21201898 36.22870759 111.60876704 35 115 C25.03612982 113.58681195 16.45142811 105.3095821 9 99 C8.15308594 98.2884375 7.30617188 97.576875 6.43359375 96.84375 C-8.62095087 83.78881665 -19.3211806 66.96712612 -22 47 C-22.99636597 30.58446228 -20.7355912 15.67860134 -13 1 C-12.34 1 -11.68 1 -11 1 C-10.78052704 1.55090302 -10.56105408 2.10180603 -10.33493042 2.66940308 C0.62548757 30.17604349 11.6322129 57.65880874 23 85 C22.22583593 80.72317116 21.07556899 76.58137951 19.86694336 72.41162109 C19.54485649 71.29121681 19.54485649 71.29121681 19.21626282 70.1481781 C18.75168615 68.53285828 18.28622008 66.91779405 17.81995964 65.30295944 C17.08261007 62.74837605 16.34809757 60.19299273 15.61439514 57.63735962 C13.52856147 50.37358389 11.43826237 43.11109846 9.34448242 35.84960938 C8.06266013 31.40334891 6.7846752 26.95600026 5.50906563 22.50795364 C5.02213452 20.81301814 4.53369942 19.11851397 4.04374504 17.42444992 C3.36012126 15.06051333 2.68135246 12.69523308 2.00366211 10.32958984 C1.79951691 9.62822403 1.5953717 8.92685822 1.38504028 8.20423889 C0.57526303 5.36139346 0 2.97370355 0 0 Z M25 90 C26 92 26 92 26 92 Z M26 93 C27 95 27 95 27 95 Z " fill="#86C244" transform="translate(580,786)"/>
<path d="M0 0 C0.99348714 2.60900697 1.05514506 3.82463091 0.20581055 6.52563477 C-0.22948975 7.48783936 -0.66479004 8.45004395 -1.11328125 9.44140625 C-1.61102051 10.56208496 -2.10875977 11.68276367 -2.62158203 12.83740234 C-3.03322601 13.74386505 -3.03322601 13.74386505 -3.45318604 14.66864014 C-4.95581744 17.98032064 -6.41846531 21.30969048 -7.88671875 24.63671875 C-8.36836487 25.72421417 -8.36836487 25.72421417 -8.85974121 26.8336792 C-12.83439973 35.83545118 -16.62744075 44.91356062 -20.42074585 53.9928894 C-21.60954672 56.83801606 -22.8013489 59.68187208 -23.9934082 62.52563477 C-24.73801842 64.30605807 -25.48241289 66.08657163 -26.2265625 67.8671875 C-26.56359695 68.67134598 -26.90063141 69.47550446 -27.24787903 70.30403137 C-29.27425357 75.16601725 -31.17802441 80.05765371 -33 85 C-26.38138718 73.39655511 -19.83019958 61.76370167 -13.5 50 C-5.89463632 35.87062045 2.03310071 21.92774481 10 8 C12 9 12 9 13.25390625 12.16796875 C13.69788986 13.50525273 14.13374525 14.84525589 14.5625 16.1875 C14.78357422 16.84814453 15.00464844 17.50878906 15.23242188 18.18945312 C20.38852834 33.96931974 19.29513825 51.13230533 12.3125 66.125 C0.41262187 88.52819354 -20.74744263 102.34692182 -43 113 C-44.32584023 113.36198975 -45.65806042 113.70320539 -47 114 C-54.81006203 87.27138965 -56.68819044 59.72893009 -43.66015625 34.39453125 C-34.59012095 18.18906651 -20.60249836 8.34834641 -4 1 C-2.67287118 0.64276341 -1.34054526 0.3030302 0 0 Z M-35 87 C-34 89 -34 89 -34 89 Z M-36 89 C-35 91 -35 91 -35 91 Z M-37 91 C-36 93 -36 93 -36 93 Z " fill="#F6921E" transform="translate(290,768)"/>
<path d="M0 0 C1.10714355 -0.00386719 2.21428711 -0.00773438 3.35498047 -0.01171875 C15.50352538 0.15298402 27.10950108 2.56861051 38.875 5.4375 C38.06366405 10.03211468 36.41365888 13.86144358 34.3125 18 C33.95389893 18.70745361 33.59529785 19.41490723 33.22583008 20.14379883 C22.41700749 41.06417686 6.62498001 60.31053266 -16.125 68.4375 C-33.24672528 73.83568535 -49.8918408 71.80600775 -66.125 64.4375 C-66.125 63.7775 -66.125 63.1175 -66.125 62.4375 C-65.45782959 62.08147705 -64.79065918 61.7254541 -64.10327148 61.35864258 C-51.22291798 54.47657384 -38.40164403 47.52204493 -25.71533203 40.28686523 C-17.49481355 35.61140063 -9.18562642 31.10860581 -0.83935547 26.66186523 C0.11181152 26.15212158 1.06297852 25.64237793 2.04296875 25.1171875 C2.88110107 24.67101074 3.7192334 24.22483398 4.58276367 23.76513672 C6.82407689 22.46699408 8.83917567 21.0351318 10.875 19.4375 C9.88846436 19.85821777 8.90192871 20.27893555 7.88549805 20.71240234 C-11.43327303 28.94827403 -30.76343729 37.15753014 -50.12533569 45.29156494 C-52.04270621 46.09757827 -53.95955628 46.90483078 -55.87588501 47.71331787 C-58.55904127 48.84490593 -61.24407839 49.97190435 -63.9296875 51.09765625 C-64.73306046 51.43746017 -65.53643341 51.7772641 -66.364151 52.12736511 C-71.89636713 54.4375 -71.89636713 54.4375 -74.125 54.4375 C-73.55373873 49.25591892 -71.89190158 45.27011803 -69.5625 40.6875 C-69.20462402 39.98230225 -68.84674805 39.27710449 -68.47802734 38.55053711 C-59.4174662 21.21720342 -45.11614209 10.02551267 -26.91015625 3.515625 C-17.97877605 0.97170247 -9.27096389 0.02278228 0 0 Z " fill="#86C244" transform="translate(874.125,250.5625)"/>
<path d="M0 0 C7.3667577 6.47481842 12.70396188 13.68589871 17.375 22.25 C17.70910889 22.85924316 18.04321777 23.46848633 18.38745117 24.09619141 C20.6896109 28.50851607 21.93756734 32.76356573 23 37.625 C16.82603532 35.65876375 10.841371 33.40973637 4.875 30.88671875 C3.59487785 30.34998787 3.59487785 30.34998787 2.28889465 29.80241394 C-0.47544194 28.64234342 -3.23775025 27.47752969 -6 26.3125 C-7.91307107 25.50839727 -9.82623933 24.70452575 -11.73950195 23.90087891 C-28.51084867 16.85118144 -45.26197192 9.75341849 -62 2.625 C-55.41717715 6.84150052 -48.65591773 10.66154656 -41.8125 14.4375 C-40.63458076 15.08965686 -39.45676726 15.74200477 -38.27905273 16.39453125 C-31.925968 19.9124303 -25.56503223 23.41605768 -19.203125 26.91796875 C-17.91300221 27.62849509 -16.62288175 28.33902565 -15.33276367 29.04956055 C-12.88873471 30.39552537 -10.44346498 31.73919427 -7.99731445 33.08129883 C-4.65853206 34.91806868 -1.32710975 36.76717764 2 38.625 C2.86736786 39.10646484 2.86736786 39.10646484 3.7522583 39.59765625 C5.45534211 40.54644551 7.15163274 41.5073969 8.84765625 42.46875 C9.83902588 43.02755859 10.83039551 43.58636719 11.85180664 44.16210938 C12.91516235 44.88624023 12.91516235 44.88624023 14 45.625 C14 46.285 14 46.945 14 47.625 C-2.99857451 54.80062777 -20.57398537 57.33952747 -38.1875 50.375 C-63.24142247 39.0137193 -81.1533552 16.00212521 -91 -9.375 C-91 -10.035 -91 -10.695 -91 -11.375 C-88.31339217 -12.02474205 -85.62581326 -12.66988418 -82.9375 -13.3125 C-82.18533203 -13.49490234 -81.43316406 -13.67730469 -80.65820312 -13.86523438 C-52.8406146 -20.48846974 -22.99911935 -17.92345163 0 0 Z " fill="#86C244" transform="translate(113,254.375)"/>
<path d="M0 0 C9.79965678 3.62428958 18.09211338 10.3202796 26 17 C26.82371094 17.67675781 27.64742188 18.35351562 28.49609375 19.05078125 C43.94615205 32.23515238 55.22904895 50.45696785 57 71 C57.89781458 86.43803122 54.90571851 100.18856299 48 114 C45 113 45 113 43.90698242 110.98950195 C43.55998291 110.08159912 43.2129834 109.17369629 42.85546875 108.23828125 C42.43620117 107.16400879 42.01693359 106.08973633 41.58496094 104.98291016 C41.12379883 103.7716748 40.66263672 102.56043945 40.1875 101.3125 C39.13997976 98.61618954 38.08331462 95.923479 37.02734375 93.23046875 C36.73155426 92.47314453 36.43576477 91.71582031 36.13101196 90.93554688 C31.54865138 79.23781279 26.76250197 67.6213556 22.01202774 55.99117661 C20.74549387 52.88948391 19.48060005 49.78712331 18.21557617 46.68481445 C15.81149279 40.78942353 13.40623717 34.89451215 11 29 C13.79434743 39.63068266 16.7359223 50.2116776 19.765625 60.77734375 C20.2084298 62.32528906 20.65111547 63.87326845 21.09368896 65.42127991 C22.24324583 69.44096132 23.39438989 73.4601864 24.54589844 77.47930908 C25.72689604 81.60246081 26.90634597 85.72605521 28.0859375 89.84960938 C30.38913537 97.90016648 32.69401508 105.95024077 35 114 C31.70920769 115.07123313 31.11216133 115.04512844 27.6796875 113.6640625 C26.40228587 113.0017745 25.13438479 112.3209384 23.875 111.625 C23.20992432 111.262854 22.54484863 110.90070801 21.85961914 110.52758789 C15.81707592 107.11446031 10.8348687 102.980827 6 98 C5.44054687 97.46117188 4.88109375 96.92234375 4.3046875 96.3671875 C-7.28164788 84.29556058 -10.58615362 67.05579944 -10.4375 50.9375 C-10.42992676 49.76719238 -10.42235352 48.59688477 -10.41455078 47.39111328 C-10.10046847 30.60719667 -6.04639076 15.5593789 0 0 Z M8 21 C9 23 9 23 9 23 Z " fill="#F6921E" transform="translate(297,0)"/>
<path d="M0 0 C-1 3 -1 3 -2.57292175 4.00564575 C-3.25550552 4.30300629 -3.93808929 4.60036682 -4.64135742 4.90673828 C-5.42086761 5.25264008 -6.20037781 5.59854187 -7.00350952 5.95492554 C-8.29147934 6.50704208 -8.29147934 6.50704208 -9.60546875 7.0703125 C-10.50101471 7.46441315 -11.39656067 7.85851379 -12.31924438 8.26455688 C-15.27115193 9.56115012 -18.22925709 10.8429356 -21.1875 12.125 C-23.2194984 13.01479986 -25.25098906 13.90576006 -27.28198242 14.79785156 C-31.45289701 16.62922277 -35.62575249 18.45606596 -39.79980469 20.28027344 C-48.32379988 24.01191202 -56.81534609 27.81561702 -65.30484009 31.62493896 C-68.56288844 33.0866616 -71.82214833 34.54567168 -75.08139038 36.00473022 C-78.05455282 37.33583422 -81.02729746 38.66786928 -84 40 C-78.06147356 38.12824196 -72.12414461 36.2527179 -66.1875 34.375 C-65.28538788 34.08976471 -64.38327576 33.80452942 -63.4538269 33.51065063 C-52.54539694 30.05907214 -41.64890212 26.57372825 -30.7734375 23.01953125 C-29.78694717 22.69722534 -28.80045685 22.37491943 -27.78407288 22.04284668 C-22.98423653 20.47337567 -18.18599931 18.8991724 -13.3894043 17.31982422 C-11.64633628 16.74832765 -9.90325435 16.17687355 -8.16015625 15.60546875 C-7.35996063 15.34047073 -6.55976501 15.07547272 -5.73532104 14.80244446 C-0.22616045 13 -0.22616045 13 2 13 C-1.72497424 29.03512721 -11.61902122 41.93194671 -25.03515625 51.24609375 C-45.98209151 63.63762726 -71.82251426 62.94140928 -94.74633789 57.2175293 C-95.57254639 57.00136963 -96.39875488 56.78520996 -97.25 56.5625 C-98.03560303 56.35729736 -98.82120605 56.15209473 -99.63061523 55.94067383 C-104.03961773 54.72280418 -107.96258033 53.20515119 -112 51 C-110.50087207 45.41153492 -107.75788559 41.11687994 -104.5625 36.375 C-103.76223389 35.1840271 -103.76223389 35.1840271 -102.94580078 33.96899414 C-98.18008439 27.0189324 -92.99480927 20.92375968 -87 15 C-86.20207031 14.19175781 -85.40414062 13.38351562 -84.58203125 12.55078125 C-61.51541669 -9.61273584 -28.52512379 -12.55393216 0 0 Z " fill="#00ADEE" transform="translate(114,565)"/>
<path d="M0 0 C13 0 13 0 16.17578125 2.859375 C17.29345703 4.72583008 17.29345703 4.72583008 18.3125 6.75 C19.10725338 8.12417222 19.90283889 9.49786349 20.69921875 10.87109375 C21.07868652 11.56315918 21.4581543 12.25522461 21.84912109 12.96826172 C23.59443929 16.04941107 25.60653113 18.90321825 27.625 21.8125 C31 26.75494071 31 26.75494071 31 29 C34.82562698 25.57103942 37.23956983 21.65843543 39.875 17.3125 C40.32133789 16.60222656 40.76767578 15.89195312 41.22753906 15.16015625 C43.126814 12.13236668 44.92021903 9.1631124 46.4921875 5.94921875 C47.75 3.5 47.75 3.5 51 0 C55.62 0 60.24 0 65 0 C65 21.78 65 43.56 65 66 C60.71 66 56.42 66 52 66 C51.67 51.81 51.34 37.62 51 23 C45.06 31.91 39.12 40.82 33 50 C28.6550898 47.8275449 27.69673058 46.51918395 25.109375 42.5546875 C24.46967773 41.58515137 23.82998047 40.61561523 23.17089844 39.61669922 C22.37200195 38.38193848 21.57310547 37.14717773 20.75 35.875 C18.1925 31.95625 15.635 28.0375 13 24 C12.67 37.86 12.34 51.72 12 66 C8.04 66 4.08 66 0 66 C0 44.22 0 22.44 0 0 Z " fill="#00ADEE" transform="translate(1207,729)"/>
<path d="M0 0 C6.084375 -0.0825 12.16875 -0.165 18.4375 -0.25 C20.33943115 -0.28641602 22.2413623 -0.32283203 24.20092773 -0.36035156 C41.04472009 -0.55011222 41.04472009 -0.55011222 47 4 C50.92454706 8.80757014 52.31003414 12.72267409 52.21875 18.94140625 C51.66686786 24.13501138 48.76430081 27.62510962 45 31 C45.83144531 31.58007812 45.83144531 31.58007812 46.6796875 32.171875 C47.40414063 32.69265625 48.12859375 33.2134375 48.875 33.75 C49.59429688 34.26046875 50.31359375 34.7709375 51.0546875 35.296875 C54.12148352 37.98186107 54.88678474 39.98106267 55.3359375 44.0234375 C55.46869128 55.41371158 55.46869128 55.41371158 51 60 C44.1257462 65.75518923 35.89223994 66.31629091 27.24609375 66.1953125 C26.54746216 66.19329834 25.84883057 66.19128418 25.12902832 66.18920898 C22.56511698 66.17889031 20.00130058 66.1509701 17.4375 66.125 C8.8059375 66.063125 8.8059375 66.063125 0 66 C0 44.22 0 22.44 0 0 Z M12 11 C12 16.28 12 21.56 12 27 C15.20884784 27.08127476 18.41561761 27.14063141 21.625 27.1875 C22.52863281 27.21263672 23.43226562 27.23777344 24.36328125 27.26367188 C29.66841004 27.32175723 33.43842608 27.04843047 38 24 C39.52491998 20.95016004 39.23562548 18.3576631 39 15 C37.16884793 12.38406847 36.09031634 12.03010545 33 11 C31.37280518 10.91856145 29.74248281 10.8924698 28.11328125 10.90234375 C27.17548828 10.90556641 26.23769531 10.90878906 25.27148438 10.91210938 C24.29501953 10.92048828 23.31855469 10.92886719 22.3125 10.9375 C21.32443359 10.94201172 20.33636719 10.94652344 19.31835938 10.95117188 C16.87888042 10.9629568 14.43943259 10.98089217 12 11 Z M12 38 C12 43.61 12 49.22 12 55 C15.33383502 55.08153401 18.66564235 55.14075667 22 55.1875 C22.93457031 55.21263672 23.86914062 55.23777344 24.83203125 55.26367188 C30.94479205 55.32779174 35.47497596 54.69344922 41 52 C43.32749345 48.50875983 43.50299316 47.10777749 43 43 C40.76793569 40.15219381 39.45007001 39.15002334 36 38 C34.15389468 37.91760831 32.30494836 37.89256641 30.45703125 37.90234375 C28.84731445 37.90717773 28.84731445 37.90717773 27.20507812 37.91210938 C26.08552734 37.92048828 24.96597656 37.92886719 23.8125 37.9375 C22.11577148 37.94426758 22.11577148 37.94426758 20.38476562 37.95117188 C17.58982124 37.96296489 14.79490401 37.98090043 12 38 Z " fill="#00ADEE" transform="translate(1262,506)"/>
<path d="M0 0 C7.21109276 6.13357315 11.35177507 14.43538248 12.234375 23.80859375 C12.70927679 33.63906073 10.27929085 42.68291792 3.8515625 50.234375 C-3.77897444 57.91478473 -12.05317592 61.65058415 -22.91015625 61.765625 C-33.34766134 61.23105368 -41.33847652 58.23651518 -48.98046875 51.02734375 C-56.70069716 42.08893334 -57.62628592 32.08770346 -57.12695312 20.78417969 C-56.38564111 11.63115659 -50.75145327 4.54598485 -43.9609375 -1.265625 C-29.81647727 -9.70199252 -13.51729389 -9.64838645 0 0 Z M-39.8359375 12.734375 C-44.35626903 19.11601951 -44.88537065 25.07206311 -43.9609375 32.734375 C-41.85420134 39.28062813 -38.70899444 43.9805419 -32.9609375 47.734375 C-27.53151147 50.26810715 -21.62297835 50.80586103 -15.8515625 49.1171875 C-9.09200182 46.15660472 -4.26923699 40.97668244 -1.5234375 34.171875 C-0.16677765 25.8811759 -1.32033094 19.20309379 -5.5859375 11.984375 C-10.79675974 7.04780656 -15.76633438 4.43048576 -23.0234375 4.109375 C-30.37973154 4.4463045 -35.00880038 7.33357811 -39.8359375 12.734375 Z " fill="#00ADEE" transform="translate(1187.9609375,623.265625)"/>
<path d="M0 0 C40.75 0 40.75 0 50.28125 9.140625 C58.06414651 17.56030396 59.57779976 25.50286981 59.3125 36.7890625 C58.85701934 45.32552912 55.31152313 52.27423307 49 58 C34.97940686 69.30891798 16.97346392 66 0 66 C0 44.22 0 22.44 0 0 Z M12 11 C12 25.19 12 39.38 12 54 C28.34018521 55.3339327 28.34018521 55.3339327 41.05859375 47.96484375 C41.51363281 47.29582031 41.96867187 46.62679687 42.4375 45.9375 C42.91058594 45.26589844 43.38367187 44.59429688 43.87109375 43.90234375 C47.08959321 38.47878237 46.63362824 32.08427118 46 26 C43.90135357 20.31013533 39.90120373 16.40083524 35 13 C27.36615654 10.10402133 27.36615654 10.10402133 12 11 Z " fill="#00ADEE" transform="translate(1066,506)"/>
<path d="M0 0 C16.5 0 33 0 50 0 C50 3.63 50 7.26 50 11 C37.79 11 25.58 11 13 11 C13 16.28 13 21.56 13 27 C23.89 27 34.78 27 46 27 C46 30.63 46 34.26 46 38 C35.11 38 24.22 38 13 38 C13 43.61 13 49.22 13 55 C25.21 55 37.42 55 50 55 C50 58.63 50 62.26 50 66 C33.5 66 17 66 0 66 C0 44.22 0 22.44 0 0 Z " fill="#00ADEE" transform="translate(1336,506)"/>
<path d="M0 0 C4.29 0 8.58 0 13 0 C13 8.91 13 17.82 13 27 C22.9 27 32.8 27 43 27 C43 18.09 43 9.18 43 0 C46.96 0 50.92 0 55 0 C55 21.78 55 43.56 55 66 C51.04 66 47.08 66 43 66 C43 57.09 43 48.18 43 39 C33.1 39 23.2 39 13 39 C13 47.91 13 56.82 13 66 C8.71 66 4.42 66 0 66 C0 44.22 0 22.44 0 0 Z " fill="#00ADEE" transform="translate(1364,617)"/>
<path d="M0 0 C16.17 0 32.34 0 49 0 C49 3.63 49 7.26 49 11 C36.79 11 24.58 11 12 11 C12 16.28 12 21.56 12 27 C22.89 27 33.78 27 45 27 C45 30.63 45 34.26 45 38 C34.11 38 23.22 38 12 38 C12 43.61 12 49.22 12 55 C24.54 55 37.08 55 50 55 C50 58.63 50 62.26 50 66 C33.5 66 17 66 0 66 C0 44.22 0 22.44 0 0 Z " fill="#00ADEE" transform="translate(1432,729)"/>
<path d="M0 0 C16.17 0 32.34 0 49 0 C49 3.63 49 7.26 49 11 C36.79 11 24.58 11 12 11 C12 16.28 12 21.56 12 27 C22.89 27 33.78 27 45 27 C45 30.63 45 34.26 45 38 C34.11 38 23.22 38 12 38 C12 43.61 12 49.22 12 55 C24.54 55 37.08 55 50 55 C50 58.63 50 62.26 50 66 C33.5 66 17 66 0 66 C0 44.22 0 22.44 0 0 Z " fill="#00ADEE" transform="translate(1473,506)"/>
<path d="M0 0 C1.65322266 0.01740234 1.65322266 0.01740234 3.33984375 0.03515625 C4.99693359 0.04869141 4.99693359 0.04869141 6.6875 0.0625 C7.54214844 0.07410156 8.39679688 0.08570313 9.27734375 0.09765625 C9.51014038 0.63397675 9.74293701 1.17029724 9.98278809 1.72286987 C12.44852822 7.40305513 14.9153758 13.08275855 17.3828125 18.76220703 C18.29845015 20.87016136 19.21382326 22.97823061 20.12890625 25.08642578 C21.45890561 28.15038265 22.78989598 31.21390739 24.12109375 34.27734375 C24.55607178 35.27973083 24.9910498 36.28211792 25.43920898 37.31488037 C27.50343629 42.06227442 29.58506249 46.7999721 31.71875 51.51660156 C32.0940686 52.34845978 32.46938721 53.18031799 32.8560791 54.03738403 C33.55478444 55.58105424 34.25819861 57.12260512 34.96716309 58.66159058 C36.31821399 61.64732789 37.27734375 63.78035479 37.27734375 67.09765625 C32.98734375 67.09765625 28.69734375 67.09765625 24.27734375 67.09765625 C23.27037807 64.99681416 22.27198485 62.89186136 21.27734375 60.78515625 C20.44203125 59.02751953 20.44203125 59.02751953 19.58984375 57.234375 C18.27734375 54.09765625 18.27734375 54.09765625 18.27734375 51.09765625 C8.04734375 51.09765625 -2.18265625 51.09765625 -12.72265625 51.09765625 C-13.05265625 52.74765625 -13.38265625 54.39765625 -13.72265625 56.09765625 C-15.25931986 59.8309931 -17.00480548 63.44171743 -18.72265625 67.09765625 C-23.01265625 67.09765625 -27.30265625 67.09765625 -31.72265625 67.09765625 C-29.08932101 58.41056507 -25.35883697 50.24255783 -21.66015625 41.97265625 C-20.64864034 39.69955402 -19.63853294 37.42582972 -18.62860107 35.15202332 C-17.95559159 33.63685849 -17.28213133 32.12189381 -16.60821533 30.60713196 C-13.21580333 22.97587393 -9.89692652 15.31343117 -6.60522461 7.63818359 C-6.23405518 6.77789551 -5.86288574 5.91760742 -5.48046875 5.03125 C-5.16223145 4.28931396 -4.84399414 3.54737793 -4.51611328 2.78295898 C-3.24410391 0.08121108 -3.1631375 0.11345543 0 0 Z M2.27734375 16.09765625 C-2.67265625 27.97765625 -2.67265625 27.97765625 -7.72265625 40.09765625 C-0.79265625 40.09765625 6.13734375 40.09765625 13.27734375 40.09765625 C9.97734375 32.17765625 6.67734375 24.25765625 3.27734375 16.09765625 C2.94734375 16.09765625 2.61734375 16.09765625 2.27734375 16.09765625 Z " fill="#00ADEE" transform="translate(1207.72265625,504.90234375)"/>
<path d="M0 0 C3.96 0 7.92 0 12 0 C14.54270512 5.73862843 17.08370314 11.47800895 19.62329102 17.21801758 C20.48287692 19.16026972 21.34288572 21.10233477 22.20336914 23.04418945 C25.14831396 29.69056288 28.07996084 36.34264756 31 43 C31.43580383 43.99147034 31.87160767 44.98294067 32.32061768 46.00445557 C33.59629019 48.91305513 34.8638439 51.82505372 36.12890625 54.73828125 C36.51924545 55.62646042 36.90958466 56.51463959 37.31175232 57.42973328 C37.66592728 58.24996475 38.02010223 59.07019623 38.38500977 59.9152832 C38.69801529 60.63416214 39.01102081 61.35304108 39.33351135 62.09370422 C40 64 40 64 40 67 C35.71 67 31.42 67 27 67 C25.9955866 64.7101766 24.99632388 62.4183401 24 60.125 C23.71382812 59.47402344 23.42765625 58.82304688 23.1328125 58.15234375 C21 53.2265625 21 53.2265625 21 51 C11.1 51.33 1.2 51.66 -9 52 C-10.93222372 56.56125509 -10.93222372 56.56125509 -12.85913086 61.12475586 C-14.88888889 65.88888889 -14.88888889 65.88888889 -16 67 C-18.18639453 67.07258946 -20.37500389 67.08373783 -22.5625 67.0625 C-23.76003906 67.05347656 -24.95757813 67.04445313 -26.19140625 67.03515625 C-27.58166016 67.01775391 -27.58166016 67.01775391 -29 67 C-19.85550036 44.44115316 -9.88687978 22.24015089 0 0 Z M5 17 C3.49414477 20.45581315 1.99631711 23.91504753 0.5 27.375 C0.07074219 28.35984375 -0.35851563 29.3446875 -0.80078125 30.359375 C-1.40986328 31.77089844 -1.40986328 31.77089844 -2.03125 33.2109375 C-2.59682617 34.51490479 -2.59682617 34.51490479 -3.17382812 35.84521484 C-4.11933353 37.9266173 -4.11933353 37.9266173 -4 40 C2.6 40 9.2 40 16 40 C13.05162245 32.0815003 9.95998907 24.46500067 6 17 C5.67 17 5.34 17 5 17 Z " fill="#00ADEE" transform="translate(1149,728)"/>
<path d="M0 0 C2.4375 2 2.4375 2 3.4375 5 C2.22265625 7.04296875 2.22265625 7.04296875 0.5 9.1875 C-0.06589844 9.90292969 -0.63179687 10.61835937 -1.21484375 11.35546875 C-1.88193359 12.16951172 -1.88193359 12.16951172 -2.5625 13 C-3.24054688 12.65066406 -3.91859375 12.30132813 -4.6171875 11.94140625 C-12.16006276 8.25354618 -18.84484988 5.77991807 -27.1875 7.9375 C-28.363125 8.4634375 -28.363125 8.4634375 -29.5625 9 C-30.01167933 13.49898153 -30.01167933 13.49898153 -28.5234375 17.58203125 C-25.62880105 19.67516478 -22.39597212 20.43169618 -19 21.375 C-10.2030154 23.98092723 -1.54482471 26.66682777 4.4375 34 C6.38676781 39.84780342 6.21757493 46.52211492 4.375 52.375 C0.12704388 58.13029538 -4.34988959 61.8551412 -11.5625 63 C-23.97361456 63.99041313 -34.4619749 62.19636614 -44.234375 54.171875 C-44.67265625 53.78515625 -45.1109375 53.3984375 -45.5625 53 C-44.1307479 47.98886765 -41.57804307 46.05530451 -37.5625 43 C-36.99402344 43.40992188 -36.42554688 43.81984375 -35.83984375 44.2421875 C-29.00112969 49.01444539 -23.117041 51.77768555 -14.5625 51 C-11.15992945 50.04961347 -11.15992945 50.04961347 -8.5625 48 C-7.23341833 45.10927047 -7.23341833 45.10927047 -7.5625 42 C-10.90897877 37.19527908 -15.94886527 36.45813965 -21.3125 35.0625 C-28.92627991 33.07998016 -36.12989466 30.87552216 -41.5 24.8125 C-43.93253865 18.3734271 -44.40015969 12.11240549 -41.578125 5.75 C-38.74807989 0.87361458 -34.17542891 -2.85151929 -28.79296875 -4.5625 C-19.00910792 -6.48157603 -8.54230395 -5.26303087 0 0 Z " fill="#00ADEE" transform="translate(1542.5625,733)"/>
<path d="M0 0 C1.35731338 0.9672012 2.69884319 1.95847769 4 3 C3.55530671 8.03985731 1.28656638 10.37634988 -2 14 C-2.68707031 13.65066406 -3.37414063 13.30132813 -4.08203125 12.94140625 C-4.98308594 12.48636719 -5.88414063 12.03132812 -6.8125 11.5625 C-7.70582031 11.11003906 -8.59914063 10.65757812 -9.51953125 10.19140625 C-12.95294485 8.54228633 -15.66339539 7.84432213 -19.4375 7.8125 C-20.58025391 7.79123047 -20.58025391 7.79123047 -21.74609375 7.76953125 C-24.31572584 8.03228392 -25.87206723 8.53262286 -28 10 C-28.81870185 13.56206661 -28.81870185 13.56206661 -29 17 C-24.12342391 20.67715932 -19.46922872 22.24801429 -13.625 23.875 C0.84375042 28.17030266 0.84375042 28.17030266 5.1640625 34.78125 C7.32804432 40.52490269 6.72012231 47.75961947 4.875 53.5 C-0.004884 60.006512 -5.13016844 62.45478193 -13 64 C-25.06933724 65.5484387 -35.40032049 60.89740752 -45 54 C-43.52069807 50.03520428 -41.76352943 47.22411767 -39 44 C-35.57890185 45.30645844 -32.40578958 46.82077624 -29.1875 48.5625 C-23.21276658 51.5587313 -18.83255163 52.5482358 -12.125 51.25 C-8.75321661 50.24356447 -8.75321661 50.24356447 -7 47 C-6.33314062 44.54327108 -6.33314062 44.54327108 -7 42 C-11.50605104 38.39235166 -15.84275197 36.97263289 -21.375 35.5625 C-29.03140822 33.44685967 -34.80593991 31.19406009 -40.5 25.5 C-43.01943824 19.62131077 -43.25289855 12.87259552 -41.26953125 6.7421875 C-38.74602112 1.98356839 -35.26359057 -1.08731501 -30.31640625 -3.08203125 C-20.3272704 -5.8469864 -9.17115754 -4.79401417 0 0 Z " fill="#00ADEE" transform="translate(1583,509)"/>
<path d="M0 0 C3.96 0 7.92 0 12 0 C12.0093457 1.26070312 12.01869141 2.52140625 12.02832031 3.8203125 C12.06837372 8.52460278 12.13417501 13.22824963 12.20751953 17.93212891 C12.23564035 19.96296892 12.25689886 21.99391657 12.27099609 24.02490234 C12.29254898 26.95465855 12.33926222 29.88313265 12.390625 32.8125 C12.39185364 33.71178223 12.39308228 34.61106445 12.39434814 35.53759766 C12.53079392 41.49047999 13.66811017 46.00669515 17 51 C20.89168896 54.65582903 24.64168554 55.29080092 29.9375 55.22265625 C33.81259841 54.80432176 36.69105491 52.98170882 39.75 50.6875 C43.61657718 45.46762081 43.33540336 39.20185985 43.4140625 33.0078125 C43.43342865 32.06187225 43.4527948 31.11593201 43.4727478 30.1413269 C43.53227049 27.13597478 43.57881946 24.13058379 43.625 21.125 C43.66320492 19.08071296 43.70225811 17.03644158 43.7421875 14.9921875 C43.83794954 9.9949197 43.92208114 4.99757658 44 0 C47.96 0 51.92 0 56 0 C56.09944171 6.5103722 56.17173898 13.02029483 56.21972656 19.53125 C56.23974747 21.74259145 56.26697259 23.95388058 56.30175781 26.16503906 C56.35069627 29.35755378 56.37306467 32.54936396 56.390625 35.7421875 C56.41127014 36.71864227 56.43191528 37.69509705 56.45318604 38.70114136 C56.45570562 46.54218719 54.86195812 53.46157905 49.8515625 59.65625 C48.74941406 60.56890625 48.74941406 60.56890625 47.625 61.5 C46.89539062 62.1290625 46.16578125 62.758125 45.4140625 63.40625 C39.87561044 67.06270379 34.54962219 67.33931395 28.125 67.3125 C26.97837891 67.33666992 26.97837891 67.33666992 25.80859375 67.36132812 C18.18349227 67.36780105 11.60507832 65.4493817 6 60 C0.28145792 52.48420183 -0.28782262 46.04602945 -0.1953125 36.9140625 C-0.1924826 35.85714203 -0.18965271 34.80022156 -0.18673706 33.71127319 C-0.1755785 30.34906499 -0.15048159 26.98712714 -0.125 23.625 C-0.11496462 21.33984761 -0.10583975 19.05469102 -0.09765625 16.76953125 C-0.07565327 11.17958398 -0.04115296 5.58983777 0 0 Z " fill="#00ADEE" transform="translate(1219,617)"/>
<path d="M0 0 C16.17 0 32.34 0 49 0 C49 3.63 49 7.26 49 11 C36.79 11 24.58 11 12 11 C12 16.61 12 22.22 12 28 C22.89 28 33.78 28 45 28 C45 31.96 45 35.92 45 40 C34.11 40 23.22 40 12 40 C12 48.58 12 57.16 12 66 C8.04 66 4.08 66 0 66 C0 44.22 0 22.44 0 0 Z " fill="#00ADEE" transform="translate(1066,729)"/>
<path d="M0 0 C12.05807888 -1.50516935 12.05807888 -1.50516935 16.1015625 1.62890625 C17.95426577 4.3258216 19.45475692 7.11442651 21 10 C22.93476778 13.07084886 24.94157989 16.0936667 26.9375 19.125 C27.90708914 20.62622339 28.8747049 22.12872415 29.83984375 23.6328125 C30.25613037 24.28137207 30.67241699 24.92993164 31.10131836 25.59814453 C31.3978833 26.06075684 31.69444824 26.52336914 32 27 C36.88128567 20.27610981 41.35213332 13.34040186 45.71044922 6.27148438 C48.90876802 1.09123198 48.90876802 1.09123198 50 0 C52.35313555 -0.07271741 54.70833668 -0.08370868 57.0625 -0.0625 C58.35285156 -0.05347656 59.64320312 -0.04445313 60.97265625 -0.03515625 C61.97167969 -0.02355469 62.97070312 -0.01195312 64 0 C62.4928666 4.267215 60.28250911 7.87702353 57.7890625 11.62109375 C57.37965424 12.24347427 56.97024597 12.8658548 56.5484314 13.50709534 C55.244805 15.48669396 53.93500696 17.46211947 52.625 19.4375 C51.75219626 20.76079876 50.87979645 22.08436403 50.0078125 23.40820312 C43.23357314 33.68428706 43.23357314 33.68428706 40.75830078 37.0300293 C38.76894721 40.39027453 38.46732473 42.4001011 38.390625 46.2734375 C38.35839844 47.42714844 38.32617188 48.58085938 38.29296875 49.76953125 C38.27878906 50.95933594 38.26460937 52.14914062 38.25 53.375 C38.20552734 55.19451172 38.20552734 55.19451172 38.16015625 57.05078125 C38.08969833 60.03349976 38.04255702 63.01675296 38 66 C34.04 66 30.08 66 26 66 C26.13664062 64.43636719 26.27328125 62.87273438 26.4140625 61.26171875 C27.32887701 41.60850474 20.71362545 30.99571844 9.24902344 16.01220703 C0 3.62462006 0 3.62462006 0 0 Z " fill="#00ADEE" transform="translate(1059,617)"/>
<path d="M0 0 C17.82 0 35.64 0 54 0 C54 3.96 54 7.92 54 12 C47.4 12 40.8 12 34 12 C34 29.82 34 47.64 34 66 C29.71 66 25.42 66 21 66 C21 48.18 21 30.36 21 12 C14.07 12 7.14 12 0 12 C0 8.04 0 4.08 0 0 Z " fill="#00ADEE" transform="translate(1292,617)"/>
<path d="M0 0 C17.82 0 35.64 0 54 0 C54 3.63 54 7.26 54 11 C47.07 11 40.14 11 33 11 C33 29.15 33 47.3 33 66 C29.04 66 25.08 66 21 66 C21 47.85 21 29.7 21 11 C14.07 11 7.14 11 0 11 C0 7.37 0 3.74 0 0 Z " fill="#00ADEE" transform="translate(1401,506)"/>
<path d="M0 0 C3.96 0 7.92 0 12 0 C12 18.15 12 36.3 12 55 C23.55 55 35.1 55 47 55 C47 58.63 47 62.26 47 66 C31.49 66 15.98 66 0 66 C0 44.22 0 22.44 0 0 Z " fill="#00ADEE" transform="translate(1331,729)"/>
<path d="M0 0 C3.96 0 7.92 0 12 0 C12 21.78 12 43.56 12 66 C8.04 66 4.08 66 0 66 C0 44.22 0 22.44 0 0 Z " fill="#00ADEE" transform="translate(1396,729)"/>
<path d="M0 0 C3.96 0 7.92 0 12 0 C12 21.78 12 43.56 12 66 C8.04 66 4.08 66 0 66 C0 44.22 0 22.44 0 0 Z " fill="#00ADEE" transform="translate(1295,729)"/>
<path d="M0 0 C3.96 0 7.92 0 12 0 C12 21.78 12 43.56 12 66 C8.04 66 4.08 66 0 66 C0 44.22 0 22.44 0 0 Z " fill="#00ADEE" transform="translate(1146,506)"/>
</svg>
